<svg id="Icons" xmlns="http://www.w3.org/2000/svg" viewBox="0 0 120 120">

<g id ="hiSvg">
    <path d="M11.1619 20.145C10.4212 19.5507 3.54374 12.8625 3.46686 12.7894C3.16311 12.4857 2.97186 12.1707 2.91936 11.8819C2.86499 11.5819 2.95686 11.3194 3.20061 11.0757C3.42749 10.8488 3.70499 10.7288 4.00311 10.7288C4.36686 10.7288 4.73999 10.9013 5.05124 11.2144L8.16936 14.2107C8.22374 14.2632 8.29499 14.2894 8.36436 14.2894C8.41958 14.2895 8.47361 14.2733 8.51965 14.2428C8.56569 14.2123 8.60169 14.1689 8.62313 14.118C8.64457 14.0672 8.65049 14.0111 8.64014 13.9568C8.6298 13.9026 8.60365 13.8526 8.56499 13.8132L3.58686 8.67191C3.08811 8.17316 2.85374 7.41004 3.44624 6.81754C3.67311 6.59066 3.95061 6.47066 4.24874 6.47066C4.61249 6.47066 4.98561 6.64316 5.29686 6.95629L10.3894 11.9213C10.4437 11.9738 10.515 12.0019 10.5862 12.0019C10.6575 12.0019 10.7306 11.9738 10.785 11.9194C10.8937 11.8107 10.8956 11.6344 10.7869 11.5238L4.67061 5.25379C4.38749 4.97066 4.21686 4.63129 4.18686 4.30129C4.15874 3.96566 4.27686 3.65441 4.52999 3.40129C4.75686 3.17441 5.03436 3.05441 5.33249 3.05441C5.69624 3.05441 6.06936 3.22691 6.38061 3.53816L12.6187 9.62066C12.6731 9.67316 12.7444 9.70129 12.8156 9.70129C12.8869 9.70129 12.96 9.67316 13.0144 9.61879C13.1231 9.51004 13.125 9.33379 13.0162 9.22316L8.48624 4.56754C8.20124 4.28254 8.03061 3.94504 8.00249 3.61504C7.97436 3.27941 8.09249 2.96816 8.34561 2.71504C8.57249 2.48816 8.84999 2.36816 9.14811 2.36816C9.51186 2.36816 9.88499 2.54066 10.1962 2.85379C11.8575 4.48504 16.1944 8.75066 16.3406 8.90816C16.8975 9.29254 17.01 8.71129 17.0381 8.33441C17.07 7.89566 16.5675 6.36379 16.86 4.98566C17.3512 3.15379 18.7669 3.45379 18.7987 3.46879C19.575 3.83254 19.4269 4.37629 19.1512 5.46941L19.1231 5.68504C18.8344 7.11379 20.8181 11.3475 20.9644 11.6644C21.7425 13.3669 22.6387 16.8188 19.6706 19.7869C16.4175 23.04 12.39 21.3732 11.1619 20.145Z" fill="#ffebcd"/>
    <path d="M15.3356 21.9713C13.3406 21.9713 11.6437 21.0169 10.9743 20.355C10.3725 19.8638 6.57372 16.1963 3.47997 13.1944C3.35435 13.0725 3.28122 13.0032 3.27372 12.9938C2.9231 12.6432 2.7056 12.2775 2.64372 11.9325C2.57247 11.5407 2.69435 11.1863 3.00185 10.8769C3.2831 10.5957 3.6281 10.4475 4.0031 10.4475C4.44372 10.4475 4.88622 10.65 5.24997 11.0157L8.36435 14.0082L3.38435 8.86691C2.8106 8.29316 2.52185 7.34254 3.24747 6.61879C3.52872 6.33754 3.87372 6.18941 4.24872 6.18941C4.68935 6.18941 5.13185 6.39191 5.4956 6.75754L10.5843 11.7188L4.46997 5.45066C4.14372 5.12441 3.9431 4.72504 3.90747 4.32754C3.87185 3.90379 4.0181 3.51566 4.33122 3.20254C4.61247 2.92129 4.95747 2.77316 5.33247 2.77316C5.77122 2.77316 6.21372 2.97379 6.57935 3.33941L12.8156 9.42004L8.2856 4.76441C7.95747 4.43629 7.75685 4.03691 7.7231 3.63941C7.68747 3.21754 7.83372 2.82941 8.14685 2.51629C8.4281 2.23504 8.7731 2.08691 9.1481 2.08691C9.58872 2.08691 10.0312 2.28941 10.395 2.65504L11.7468 3.98066C14.1562 6.34316 16.17 8.32129 16.3856 8.54254C16.4906 8.62691 16.6275 8.65879 16.6856 8.63066C16.7231 8.61191 16.7643 8.52566 16.7568 8.34379C16.7456 8.02504 16.7006 7.62941 16.6537 7.21129C16.56 6.37129 16.4625 5.50129 16.5843 4.92754C16.8506 3.93191 17.3737 3.51004 17.7637 3.32816C18.3 3.08066 18.8193 3.16691 18.9187 3.21379C19.8937 3.67129 19.7006 4.43629 19.4343 5.49754L19.4287 5.52379L19.3987 5.74316C19.2037 6.70316 20.205 9.35629 21.2062 11.5182L21.2212 11.5482C21.8906 13.0107 23.0962 16.7625 19.8712 19.9875C18.3881 21.4669 16.7831 21.9713 15.3356 21.9713ZM4.0031 11.01C3.78185 11.01 3.57185 11.1019 3.39935 11.2744C3.22122 11.4525 3.15935 11.625 3.19685 11.8313C3.2381 12.0582 3.40497 12.3282 3.6656 12.5907C3.66747 12.5925 3.74247 12.6657 3.87185 12.7894C8.2631 17.0513 10.9143 19.5844 11.3381 19.9257L11.3606 19.9463C12.3956 20.9813 16.2412 22.8188 19.4718 19.5882C22.4475 16.6125 21.3281 13.1382 20.7075 11.7807L20.6943 11.7525C20.0493 10.3613 18.5831 6.98629 18.8437 5.64004L18.8868 5.35879C19.1756 4.21129 19.1925 3.97129 18.7031 3.73504C18.5587 3.70879 17.5237 3.58316 17.1281 5.05879C17.0287 5.52941 17.1243 6.39004 17.2087 7.14941C17.2575 7.57879 17.3025 7.98566 17.3137 8.32504C17.3325 8.85941 17.0793 9.06379 16.9256 9.13879C16.6125 9.29066 16.2393 9.16129 16.0068 8.96629L15.9825 8.94379C15.8681 8.82004 13.1475 6.15191 11.3475 4.38566L9.99372 3.05629C9.53247 2.59316 8.9381 2.51629 8.53872 2.91566C8.34372 3.11066 8.2556 3.33941 8.27622 3.59254C8.29872 3.85691 8.44122 4.13254 8.67935 4.37066L13.2187 9.02629C13.3219 9.13237 13.3793 9.27471 13.3786 9.42268C13.3779 9.57065 13.3191 9.71244 13.215 9.81754C13.0068 10.0257 12.6393 10.0294 12.4256 9.82316L6.18372 3.73879C5.72247 3.27754 5.12622 3.20066 4.72872 3.60004C4.53372 3.79504 4.4456 4.02379 4.46622 4.27691C4.4906 4.54129 4.6331 4.81879 4.86935 5.05316L10.9875 11.3269C11.2031 11.5444 11.2012 11.9007 10.9837 12.1182C10.7756 12.3263 10.4081 12.33 10.1943 12.1238L5.09997 7.15691C4.63872 6.69191 4.04247 6.61691 3.64497 7.01629C3.15935 7.50191 3.4181 8.10379 3.7856 8.47316L8.76747 13.6182C8.87033 13.7238 8.92742 13.8657 8.92637 14.0131C8.92532 14.1605 8.8662 14.3015 8.76185 14.4057C8.55185 14.6157 8.1881 14.6175 7.97435 14.4132L4.85622 11.4169C4.59372 11.1525 4.29185 11.01 4.0031 11.01Z" fill="#4d1414"/>
    <path d="M15.8925 8.72632C14.8631 10.8282 14.9963 13.7701 16.5413 16.1307C16.7156 16.4494 17.0138 16.2938 16.8619 15.9657C14.9963 11.9738 16.9519 9.09757 16.9519 9.09757L15.8925 8.72632Z" fill="#4d1414"/>
    <path d="M11.8444 0.843804C12.4106 0.695679 13.0144 0.708804 13.6012 0.845679C14.1844 0.986304 14.7675 1.28255 15.2006 1.7663C15.6244 2.2463 15.885 2.82943 15.9731 3.44068C16.0556 4.0463 15.9787 4.67068 15.6919 5.18818C15.6581 4.60693 15.5569 4.07255 15.3862 3.57943C15.2981 3.3338 15.195 3.09943 15.0694 2.87818C14.9456 2.6588 14.7994 2.4413 14.6437 2.26318C14.3269 1.89755 13.8975 1.61255 13.4156 1.3913C12.9319 1.16255 12.405 0.993804 11.8444 0.843804Z" fill="#4d1414"/>
    <path d="M12 2.62124C12.3131 2.42249 12.705 2.38124 13.0744 2.44687C13.4475 2.51249 13.8038 2.69812 14.085 2.95499C14.3644 3.21562 14.5631 3.54374 14.6869 3.88499C14.7469 4.05562 14.7769 4.23562 14.805 4.40999C14.8144 4.58999 14.8144 4.76999 14.7863 4.94999C14.6569 4.81312 14.5556 4.67624 14.46 4.54312C14.3494 4.41749 14.2631 4.28437 14.1638 4.16249C13.9688 3.92062 13.7794 3.70124 13.575 3.50624C13.365 3.31687 13.1438 3.14999 12.8869 3.00562C12.6319 2.85749 12.345 2.73374 12 2.62124Z" fill="#4d1414"/>
    <path d="M1.28062 14.5015C1.545 15.019 1.82062 15.499 2.14125 15.9227C2.46 16.3465 2.82562 16.7065 3.25125 16.9408C3.4575 17.0552 3.70312 17.1546 3.94312 17.2296C4.185 17.3065 4.43625 17.359 4.695 17.3946C5.2125 17.4583 5.75625 17.4471 6.33187 17.359C5.88562 17.7471 5.28937 17.9533 4.68187 17.9983C4.06687 18.0396 3.4425 17.9065 2.88375 17.5915C2.32125 17.2708 1.90875 16.7608 1.65 16.219C1.39125 15.6733 1.2525 15.0865 1.28062 14.5015Z" fill="#4d1414"/>
    <path d="M3.05248 14.282C3.23436 14.597 3.41436 14.8501 3.61123 15.0714C3.80623 15.2926 4.01623 15.4745 4.24498 15.6395C4.47748 15.7989 4.73248 15.9395 5.00998 16.0801C5.14873 16.1514 5.29686 16.2076 5.44311 16.2901C5.59498 16.3557 5.74873 16.4251 5.90998 16.5245C5.73936 16.5882 5.56498 16.6257 5.38686 16.6539C5.21061 16.6614 5.02873 16.6707 4.84873 16.6464C4.48873 16.5976 4.12873 16.472 3.81373 16.2526C3.50436 16.0295 3.24748 15.7201 3.10686 15.3695C2.96436 15.0207 2.92311 14.6307 3.05248 14.282Z" fill="#4d1414"/>
</g>

<g id = "instagramSvg">
    <path d="M21.7209 0H8.27874C3.71384 0 0 3.71402 0 8.27892V21.7211C0 26.2862 3.71384 30 8.27874 30H21.7209C26.2862 30 30 26.286 30 21.7211V8.27892C30.0002 3.71402 26.2862 0 21.7209 0ZM27.3384 21.7211C27.3384 24.8185 24.8185 27.3383 21.7211 27.3383H8.27874C5.18153 27.3384 2.66175 24.8185 2.66175 21.7211V8.27892C2.66175 5.18171 5.18153 2.66175 8.27874 2.66175H21.7209C24.8183 2.66175 27.3383 5.18171 27.3383 8.27892V21.7211H27.3384Z" fill="#21243D"/>
    <path d="M15 7.27014C10.7375 7.27014 7.26978 10.7379 7.26978 15.0004C7.26978 19.2627 10.7375 22.7303 15 22.7303C19.2625 22.7303 22.7303 19.2627 22.7303 15.0004C22.7303 10.7379 19.2625 7.27014 15 7.27014ZM15 20.0683C12.2054 20.0683 9.93152 17.7949 9.93152 15.0002C9.93152 12.2054 12.2052 9.93171 15 9.93171C17.7948 9.93171 20.0685 12.2054 20.0685 15.0002C20.0685 17.7949 17.7947 20.0683 15 20.0683Z" fill="#21243D"/>
    <path d="M23.0545 5.01318C22.5417 5.01318 22.0379 5.2208 21.6757 5.58457C21.3118 5.94657 21.1025 6.45053 21.1025 6.96513C21.1025 7.47814 21.3119 7.98192 21.6757 8.34569C22.0377 8.70769 22.5417 8.91708 23.0545 8.91708C23.5691 8.91708 24.0713 8.70769 24.435 8.34569C24.7988 7.98192 25.0064 7.47796 25.0064 6.96513C25.0064 6.45053 24.7988 5.94657 24.435 5.58457C24.073 5.2208 23.5691 5.01318 23.0545 5.01318Z" fill="#21243D"/>
</g>

<g id = "linkedinSvg">
    <path d="M25.6055 0H4.39453C1.97159 0 0 1.97159 0 4.39453V25.6055C0 28.0284 1.97159 30 4.39453 30H25.6055C28.0284 30 30 28.0284 30 25.6055V4.39453C30 1.97159 28.0284 0 25.6055 0ZM10.6055 23.7891H7.08984V11.4844H10.6055V23.7891ZM10.6055 9.72656H7.08984V6.21094H10.6055V9.72656ZM22.9102 23.7891H19.3945V16.7578C19.3945 15.7887 18.6058 15 17.6367 15C16.6676 15 15.8789 15.7887 15.8789 16.7578V23.7891H12.3633V11.4844H15.8789V12.147C16.7999 11.8607 17.3982 11.4844 18.5156 11.4844C20.8999 11.4869 22.9102 13.6258 22.9102 16.1536V23.7891Z" fill="#21243D"/>
</g>

<g id="mailSvg">
    <path d="M17.5 23.3334C20.7217 23.3334 23.3333 20.7217 23.3333 17.5001C23.3333 14.2784 20.7217 11.6667 17.5 11.6667C14.2783 11.6667 11.6667 14.2784 11.6667 17.5001C11.6667 20.7217 14.2783 23.3334 17.5 23.3334Z" stroke="#21243D" stroke-width="3" stroke-linecap="round" stroke-linejoin="round"/>
    <path d="M23.3333 11.6666V18.9582C23.3333 20.1186 23.7943 21.2314 24.6147 22.0518C25.4352 22.8723 26.548 23.3332 27.7083 23.3332C28.8687 23.3332 29.9815 22.8723 30.8019 22.0518C31.6224 21.2314 32.0833 20.1186 32.0833 18.9582V17.4999C32.0831 14.2085 30.9695 11.0139 28.9235 8.43568C26.8775 5.85743 24.0196 4.04711 20.8143 3.29909C17.609 2.55107 14.2449 2.90934 11.269 4.31565C8.29319 5.72196 5.88058 8.09359 4.4235 11.0449C2.96642 13.9962 2.55057 17.3537 3.24357 20.5713C3.93658 23.789 5.69767 26.6775 8.2405 28.7674C10.7833 30.8572 13.9583 32.0254 17.2493 32.082C20.5402 32.1386 23.7535 31.0803 26.3667 29.0791" stroke="#21243D" stroke-width="3" stroke-linecap="round" stroke-linejoin="round"/>
</g>

 <g id ="telegramSvg">
    <path d="M12.408,28.188c-0.865,0-0.717-0.327-1.016-1.148l-2.54-8.362L28.408,7.076L12.408,28.188z" fill="#21243D"/>
    <path d="M12.408,28.188c0.667,0,0.962-0.305,1.333-0.667l3.556-3.458l-4.436-2.674L12.408,28.188z" fill="#21243D"/>
    <path d="M12.861,21.391l10.747,7.94c1.228,0.676,2.111,0.326,2.417-1.139L30.4,7.577    c0.448-1.796-0.684-2.61-1.858-2.078L2.854,15.405c-1.754,0.703-1.742,1.682-0.32,2.117l6.592,2.058l15.261-9.628    c0.721-0.437,1.382-0.202,0.84,0.28L12.861,21.391z" fill="#FFFFFF"/>
    <path d="M24.687,30.163c-0.402,0-0.843-0.132-1.32-0.395l-10.803-7.976c-0.121-0.089-0.195-0.228-0.203-0.378    c-0.007-0.15,0.053-0.295,0.165-0.396L25.322,9.503c0.205-0.185,0.521-0.169,0.706,0.037c0.185,0.205,0.168,0.521-0.037,0.706    l-12.34,11.106l10.254,7.576c0.271,0.145,0.729,0.329,1.055,0.178c0.332-0.152,0.496-0.637,0.576-1.017l4.375-20.617    c0.17-0.681,0.088-1.229-0.215-1.481c-0.231-0.192-0.575-0.206-0.947-0.038L3.033,15.871C2.244,16.188,1.996,16.514,2,16.622    c0.003,0.071,0.173,0.267,0.68,0.422l6.375,1.99l6.999-4.416c0.234-0.146,0.542-0.077,0.689,0.156    c0.147,0.233,0.078,0.542-0.156,0.689l-7.194,4.539C9.269,20.08,9.116,20.1,8.977,20.057l-6.592-2.058    c-1.17-0.358-1.37-0.99-1.384-1.335c-0.02-0.473,0.253-1.157,1.667-1.723l25.695-9.908c0.697-0.318,1.445-0.25,1.974,0.191    c0.613,0.511,0.813,1.413,0.549,2.474l-4.371,20.598c-0.184,0.878-0.566,1.457-1.137,1.719    C25.163,30.114,24.933,30.163,24.687,30.163z" fill="#455A64"/>
    <path d="M24.687,30.163c-0.402,0-0.843-0.132-1.32-0.395l-6.72-4.959c-0.222-0.164-0.27-0.478-0.105-0.699   c0.164-0.222,0.478-0.27,0.699-0.105l6.664,4.923c0.271,0.145,0.729,0.329,1.055,0.178c0.332-0.152,0.496-0.637,0.576-1.017   l4.375-20.617c0.17-0.681,0.088-1.229-0.215-1.481c-0.231-0.192-0.575-0.206-0.947-0.038L3.033,15.871   C2.244,16.188,1.996,16.514,2,16.622c0.003,0.071,0.173,0.267,0.68,0.422l6.594,2.058c0.158,0.049,0.281,0.174,0.33,0.332   l2.267,7.461c0.061,0.167,0.108,0.333,0.149,0.477c0.032,0.114,0.072,0.256,0.099,0.298c-0.004-0.005,0.076,0.019,0.289,0.02   c0.447,0,0.617-0.167,0.957-0.498l1.66-1.614c0.198-0.194,0.514-0.188,0.707,0.01c0.192,0.198,0.188,0.515-0.01,0.707L14.09,27.88   c-0.402,0.393-0.828,0.809-1.682,0.809c-0.98,0-1.178-0.434-1.351-1.046c-0.035-0.124-0.075-0.267-0.135-0.432l-2.198-7.233   l-6.339-1.979c-1.17-0.358-1.37-0.99-1.384-1.335c-0.02-0.473,0.253-1.157,1.667-1.723l25.695-9.908   c0.697-0.318,1.445-0.25,1.974,0.191c0.613,0.511,0.813,1.413,0.549,2.474l-4.371,20.598c-0.184,0.878-0.566,1.457-1.137,1.719   C25.163,30.114,24.933,30.163,24.687,30.163z" fill="#21243D"/>
    <path d="M18.5,14c0,0.275-0.225,0.5-0.5,0.5l0,0c-0.275,0-0.5-0.225-0.5-0.5l0,0c0-0.275,0.225-0.5,0.5-0.5         l0,0C18.275,13.5,18.5,13.725,18.5,14L18.5,14z" fill="#21243D"/>
 </g>

<g id="vscodeSvg">
    <path d="M101.535 17.605L81.354 7.88899C80.2143 7.33948 78.9319 7.15814 77.6845 7.37011C76.4372 7.58208 75.2867 8.17686 74.3925 9.07199L8.32998 69.3C7.52845 70.0273 7.04865 71.0432 6.99614 72.1243C6.94363 73.2053 7.32271 74.2629 8.04998 75.0645C8.13748 75.159 8.22498 75.25 8.31948 75.334L13.713 80.234C14.4178 80.8754 15.3249 81.2497 16.277 81.2919C17.229 81.3341 18.1657 81.0416 18.9245 80.465L98.497 20.125C99.098 19.6689 99.8144 19.3897 100.566 19.3186C101.317 19.2476 102.073 19.3877 102.749 19.7231C103.424 20.0585 103.993 20.5758 104.391 21.217C104.789 21.8581 105 22.5975 105 23.352V23.1175C105 21.9656 104.675 20.8372 104.062 19.862C103.449 18.8868 102.573 18.1045 101.535 17.605Z" fill="#0065A9"/>
    <path d="M101.535 94.395L81.354 104.115C80.214 104.662 78.9319 104.843 77.6849 104.631C76.4379 104.419 75.2875 103.825 74.3925 102.932L8.32998 42.7C7.52845 41.9727 7.04865 40.9568 6.99614 39.8758C6.94363 38.7947 7.32271 37.7371 8.04998 36.9355C8.13748 36.841 8.22498 36.75 8.31948 36.666L13.713 31.766C14.4185 31.1219 15.3277 30.7459 16.2821 30.7037C17.2365 30.6615 18.1754 30.9557 18.935 31.535L98.497 91.875C99.098 92.3311 99.8144 92.6104 100.566 92.6814C101.317 92.7524 102.073 92.6123 102.749 92.2769C103.424 91.9415 103.993 91.4242 104.391 90.783C104.789 90.1419 105 89.4025 105 88.648V88.9C104.996 90.0488 104.669 91.1733 104.057 92.1451C103.444 93.1168 102.57 93.8965 101.535 94.395Z" fill="#007ACC"/>
    <path d="M81.354 104.115C80.214 104.662 78.932 104.843 77.685 104.631C76.438 104.419 75.2876 103.825 74.3925 102.932C74.8952 103.428 75.533 103.764 76.2261 103.899C76.9193 104.035 77.6369 103.962 78.289 103.691C78.9412 103.42 79.4988 102.963 79.8921 102.376C80.2855 101.79 80.4969 101.1 80.5 100.394V11.606C80.5006 10.8965 80.2906 10.2028 79.8966 9.61281C79.5026 9.02277 78.9424 8.56294 78.2868 8.29158C77.6313 8.02022 76.91 7.94953 76.2142 8.08846C75.5184 8.2274 74.8796 8.56971 74.3785 9.07204C75.2729 8.17723 76.4232 7.58242 77.6703 7.36986C78.9174 7.1573 80.1998 7.3375 81.34 7.88554L101.518 17.5875C102.559 18.0845 103.438 18.8658 104.054 19.8412C104.671 20.8166 104.998 21.9463 105 23.1V88.9C105 90.0528 104.675 91.1823 104.061 92.1582C103.448 93.1341 102.571 93.9168 101.532 94.416L81.354 104.115Z" fill="#1F9CF0"/>
</g>

<g id="codewarsSvg">
  <path d="M1.016 16.266l-0.109-0.052c-0.24-0.135-0.427-0.333-0.557-0.589-0.188-0.344-0.271-0.667-0.271-1l0.026-0.172c0-0.266 0.068-0.505 0.188-0.734l0.109-0.198c0.052-0.109 0.13-0.203 0.198-0.292 0.083-0.094 0.094-0.214 0.068-0.323l-0.068-0.214c-0.078-0.266-0.13-0.531-0.13-0.797l-0.042-0.161c0-0.297 0.078-0.589 0.266-0.802l0.135-0.172c0.094-0.135 0.24-0.214 0.401-0.266 0.13-0.042 0.224-0.177 0.24-0.333l0.026-0.453c0-0.359 0.172-0.693 0.438-0.938l0.323-0.24c0.063-0.063 0.13-0.13 0.182-0.24 0.068-0.078 0.083-0.188 0.068-0.266-0.026-0.13 0-0.172 0.068-0.188 0.214 0.083 0.349 0.057 0.443-0.052l0.172-0.224 0.479-0.536c0.135-0.13 0.188-0.375 0.104-0.557l-0.156-0.349c-0.026-0.078 0-0.172 0.068-0.198 0.172 0 0.292 0.063 0.344 0.172l0.052 0.094c0.083 0.161 0.271 0.24 0.401 0.172 0.292-0.104 0.536-0.13 0.76-0.13h0.427c0.292 0 0.531-0.203 0.589-0.51 0.052-0.37 0.182-0.667 0.37-0.865 0.203-0.229 0.427-0.401 0.693-0.536 0.349-0.182 0.563-0.453 0.63-0.797 0.094-0.427 0.318-0.734 0.625-0.932l1.016-0.573 0.292-0.177c0.172-0.104 0.333-0.24 0.469-0.401l0.266-0.318c0.13-0.135 0.266-0.224 0.427-0.266 0.13-0.042 0.318-0.068 0.479-0.052l0.531 0.036c0.266 0 0.479 0.068 0.693 0.161l0.135 0.068c0.135 0.052 0.266 0.026 0.333-0.068l0.12-0.068 0.573-0.599c0.135-0.135 0.292-0.188 0.469-0.161 0.172 0.026 0.344 0.094 0.505 0.177 0.24 0.13 0.438 0.182 0.667 0.182h0.135c0.292 0 0.583 0.042 0.88 0.109l0.198 0.052c0.198 0.052 0.401-0.026 0.531-0.188 0.042-0.068 0.135-0.078 0.188-0.026 0.042 0.026 0.052 0.052 0.068 0.094 0.026 0.266 0.188 0.469 0.401 0.531l0.214 0.068c0.224 0.068 0.427 0.214 0.557 0.401 0.135 0.198 0.297 0.401 0.479 0.531l0.135 0.135c0.135 0.135 0.318 0.188 0.505 0.172h0.786c0.323 0 0.63 0.057 0.938 0.188 0.292 0.135 0.599 0.161 0.875 0.052 0.297-0.089 0.604-0.13 0.911-0.089l0.573 0.089c0.266 0.031 0.531 0.161 0.693 0.365l0.068 0.063c0.13 0.135 0.266 0.307 0.396 0.495 0.083 0.172 0.271 0.266 0.453 0.266h0.828c0.203 0 0.401 0.042 0.563 0.135 0.172 0.13 0.318 0.266 0.453 0.401l0.13 0.172c0.161 0.188 0.24 0.438 0.229 0.708 0 0.214 0.161 0.396 0.37 0.396l0.271 0.031c0.188 0 0.344 0.13 0.438 0.302l0.135 0.271 0.344 0.771c0.057 0.135 0.068 0.266 0.057 0.375 0 0.13 0.036 0.24 0.13 0.292l0.135 0.094c0.172 0.135 0.266 0.333 0.24 0.563l-0.094 0.625-0.026 0.266c-0.026 0.135 0.036 0.307 0.161 0.401 0.198 0.13 0.292 0.307 0.302 0.505v0.266c0 0.135-0.026 0.297-0.13 0.401-0.083 0.109-0.135 0.24-0.135 0.401l0.042 0.307c0 0.214 0.13 0.401 0.266 0.531 0.188 0.135 0.292 0.349 0.323 0.563 0.052 0.333 0.063 0.599 0.063 0.865v0.307c0 0.109 0 0.214 0.042 0.318 0.026 0.094 0.094 0.188 0.172 0.245l0.266 0.198c0.271 0.172 0.458 0.401 0.563 0.708 0.135 0.292 0.172 0.599 0.172 0.906v0.104c0 0.24-0.026 0.495-0.104 0.719-0.068 0.245-0.052 0.469 0.036 0.667 0.109 0.188 0.177 0.401 0.203 0.63 0.052 0.266 0.026 0.531-0.068 0.745l-0.026 0.094c-0.068 0.161-0.172 0.307-0.307 0.427-0.135 0.135-0.266 0.214-0.344 0.307-0.083 0.078-0.135 0.214-0.094 0.333l0.036 0.188c0.068 0.266 0.068 0.531 0 0.771v0.109c-0.052 0.198-0.13 0.37-0.214 0.531-0.094 0.172-0.224 0.307-0.396 0.401l-0.203 0.13c-0.094 0.057-0.161 0.177-0.161 0.297 0 0.13-0.052 0.266-0.13 0.344l-0.203 0.271c-0.13 0.172-0.302 0.318-0.49 0.396-0.188 0.135-0.349 0.271-0.469 0.401-0.135 0.161-0.24 0.349-0.292 0.536-0.052 0.24-0.24 0.37-0.443 0.37h-0.719c-0.188 0-0.359 0.135-0.438 0.297-0.094 0.208-0.188 0.359-0.307 0.49-0.135 0.135-0.214 0.297-0.271 0.479-0.026 0.161-0.156 0.271-0.292 0.214-0.172-0.078-0.344 0-0.427 0.135-0.156 0.266-0.318 0.469-0.49 0.641l-0.094 0.078c-0.177 0.135-0.401 0.24-0.604 0.24-0.24 0-0.359 0.109-0.396 0.266-0.042 0.135-0.068 0.307-0.083 0.458-0.026 0.156-0.078 0.302-0.13 0.438l-0.068 0.078c-0.135 0.203-0.24 0.401-0.375 0.573l-0.052 0.083c-0.172 0.224-0.401 0.401-0.667 0.464-0.323 0.109-0.599 0.135-0.88 0.135h-0.188c-0.13 0-0.266 0.078-0.359 0.214l-0.078 0.135-0.083 0.156-0.172 0.297c-0.135 0.24-0.333 0.396-0.599 0.479-0.266 0.068-0.573 0.094-0.854 0.078l-0.214-0.026c-0.188 0-0.359-0.052-0.531-0.135-0.135-0.052-0.323 0-0.401 0.135-0.135 0.188-0.297 0.292-0.469 0.349l-0.401 0.13c-0.266 0.068-0.557 0.068-0.839 0l-0.214-0.068c-0.13 0-0.266-0.063-0.375-0.13-0.13-0.068-0.266-0.094-0.396-0.083l-0.177 0.031c-0.266 0.026-0.505 0-0.745-0.068l-0.359-0.083c-0.161-0.052-0.307-0.156-0.401-0.307-0.068-0.13-0.214-0.24-0.401-0.266h-0.427c-0.266-0.036-0.505-0.13-0.667-0.333l-0.531-0.505-0.188-0.161-0.292-0.214-0.172-0.13c-0.203-0.135-0.443-0.24-0.698-0.266l-0.797-0.135c-0.083 0-0.135-0.026-0.214-0.042l-0.307-0.068c-0.135-0.026-0.266-0.13-0.359-0.266-0.078-0.13-0.229-0.188-0.359-0.13-0.266 0.104-0.479 0.13-0.693 0.172h-0.188c-0.349 0.026-0.667-0.026-0.99-0.172-0.318-0.135-0.531-0.333-0.729-0.589-0.161-0.229-0.401-0.401-0.698-0.453l-0.37-0.078c-0.266-0.057-0.536-0.161-0.776-0.323-0.266-0.188-0.401-0.359-0.505-0.573-0.104-0.198-0.172-0.427-0.188-0.667v-0.104c-0.026-0.271-0.214-0.51-0.464-0.573-0.307-0.094-0.536-0.229-0.734-0.401-0.188-0.177-0.297-0.427-0.297-0.693l0.031-0.589c0-0.229-0.068-0.427-0.229-0.573-0.161-0.161-0.266-0.359-0.266-0.573l-0.042-0.479c-0.026-0.349-0.094-0.693-0.172-1.042-0.078-0.307 0.042-0.615 0.292-0.76l0.094-0.068c0.135-0.094 0.188-0.266 0.109-0.427l-0.109-0.13c-0.13-0.135-0.266-0.229-0.401-0.266-0.104-0.031-0.13-0.135-0.13-0.203l0.13-0.161c0.083-0.094 0.068-0.24 0-0.318-0.104-0.109-0.156-0.24-0.172-0.375l-0.026-0.932c0-0.188 0.026-0.375 0.078-0.557 0.057-0.161 0-0.349-0.156-0.427zM14.214 14.505c0.094-0.094 0.078-0.266 0-0.333-0.135-0.104-0.229-0.224-0.307-0.359l-0.135-0.214c-0.089-0.172-0.208-0.318-0.344-0.453l-0.026-0.026c-0.135-0.104-0.229-0.24-0.307-0.401-0.068-0.13-0.068-0.266 0-0.401l0.078-0.13c0.083-0.135 0.135-0.323 0.135-0.479v-0.057c0-0.13-0.052-0.266-0.135-0.396-0.052-0.109-0.104-0.24-0.13-0.375v-0.078c-0.042-0.161 0-0.333 0.104-0.469 0.109-0.172 0.188-0.333 0.229-0.531v-0.031c0.052-0.13 0.026-0.302-0.057-0.438-0.078-0.135-0.104-0.266-0.052-0.427l0.094-0.266c0.078-0.24 0.203-0.453 0.359-0.641l0.188-0.198 0.135-0.161 0.078-0.078c0.078-0.083 0.094-0.214 0.026-0.323-0.068-0.135-0.104-0.266-0.078-0.401l0.026-0.188c0.042-0.266 0.135-0.531 0.307-0.745l0.052-0.052c0.198-0.266 0.453-0.443 0.745-0.536l0.365-0.13c0.156-0.052 0.266-0.229 0.266-0.401 0-0.214 0.068-0.401 0.187-0.573l0.063-0.068c0.135-0.224 0.297-0.453 0.401-0.693l0.094-0.172c0.026-0.042 0.042-0.094 0.042-0.135 0-0.224-0.135-0.427-0.349-0.438l-0.583-0.042c-0.333-0.026-0.667 0-0.99 0l-1.13 0.135c-0.177 0-0.307 0.13-0.323 0.318 0 0.188-0.135 0.349-0.292 0.401l-0.479 0.13-0.135 0.042-0.401 0.135c-0.292 0.094-0.531 0.307-0.667 0.599l-0.104 0.172c-0.135 0.297-0.359 0.536-0.641 0.708-0.266 0.172-0.401 0.453-0.427 0.771v0.135c-0.026 0.266-0.109 0.531-0.266 0.719l-0.068 0.109c-0.109 0.13-0.135 0.307-0.068 0.453 0.068 0.156 0.109 0.333 0.094 0.505v0.708c0 0.188-0.135 0.344-0.266 0.396-0.188 0.068-0.307 0.214-0.359 0.401l-0.068 0.266c-0.052 0.271 0.042 0.536 0.266 0.698 0.214 0.156 0.349 0.396 0.401 0.693v0.24c0.042 0.266 0.188 0.531 0.427 0.667 0.24 0.161 0.427 0.401 0.531 0.667l0.068 0.214c0.109 0.292 0.349 0.464 0.615 0.49h0.078c0.24 0 0.453 0.135 0.589 0.349 0.13 0.214 0.344 0.359 0.583 0.401l0.375 0.104c0.229 0.068 0.443 0.188 0.615 0.359l0.026 0.031c0.135 0.104 0.349 0.089 0.469-0.057l0.094-0.104zM15.734 13.281c0.13 0.078 0.266 0.036 0.318-0.083l0.042-0.063c0.094-0.188 0.214-0.375 0.344-0.536l0.271-0.401c0.036 0 0.052-0.026 0.063-0.052l0.323-0.427c0.135-0.13 0.292-0.224 0.479-0.224 0.172 0 0.323-0.094 0.401-0.266 0.052-0.188 0.13-0.365 0.292-0.51l0.068-0.078c0.135-0.135 0.266-0.203 0.401-0.266 0.172-0.026 0.333-0.057 0.495-0.057h0.396c0.161 0 0.297-0.063 0.375-0.198s0.198-0.224 0.333-0.292l0.135-0.057c0.214-0.089 0.453-0.156 0.693-0.182l0.266-0.026c0.161 0 0.333 0 0.495 0.089 0.13 0.094 0.307 0.083 0.438-0.026l0.094-0.052c0.198-0.135 0.427-0.24 0.667-0.266h0.026c0.266-0.052 0.505-0.052 0.776-0.042h0.13c0.266 0.042 0.495 0.135 0.667 0.333l0.042 0.052c0.135 0.135 0.344 0.245 0.531 0.245h0.229c0.068 0 0.13-0.031 0.172-0.094 0.042-0.042 0.109-0.083 0.172-0.083h0.135c0.188 0 0.359 0.052 0.531 0.109l0.229 0.094c0.214 0.063 0.438 0.13 0.667 0.156h0.161c0.104 0 0.172-0.063 0.172-0.156 0-0.135-0.026-0.271-0.094-0.375l-0.094-0.214c-0.104-0.172-0.188-0.359-0.266-0.531l-0.026-0.068c-0.068-0.135-0.068-0.266 0-0.401v-0.068c0.026-0.104-0.026-0.224-0.135-0.266h-0.104c-0.214-0.068-0.401-0.188-0.536-0.359l-0.13-0.135c-0.135-0.13-0.214-0.333-0.271-0.531-0.063-0.172-0.208-0.307-0.396-0.307h-0.563c-0.198-0.026-0.375-0.135-0.495-0.292l-0.052-0.068c-0.094-0.135-0.172-0.292-0.224-0.453-0.068-0.135-0.214-0.214-0.349-0.172l-0.161 0.052c-0.266 0.094-0.531 0.13-0.797 0.104l-0.214-0.026c-0.229 0-0.443-0.094-0.615-0.224l-0.135-0.094c-0.104-0.083-0.208-0.135-0.333-0.188-0.13-0.052-0.24-0.026-0.318 0.068l-0.068 0.078c-0.13 0.135-0.318 0.24-0.505 0.266l-0.719 0.042c-0.135 0-0.266 0.068-0.359 0.161-0.109 0.094-0.229 0.156-0.365 0.182h-0.026c-0.13 0-0.266 0.094-0.396 0.188v0.026c-0.135 0.135-0.307 0.203-0.484 0.203l-0.052 0.026c-0.161 0-0.318 0-0.479 0.042h-0.161c-0.224 0.036-0.401 0.224-0.453 0.464l-0.052 0.307c-0.042 0.214-0.135 0.401-0.266 0.573-0.135 0.161-0.297 0.266-0.495 0.266h-0.224c-0.135 0.031-0.271 0.177-0.245 0.333 0.031 0.229 0 0.427-0.036 0.63l-0.052 0.224c-0.057 0.203-0.188 0.359-0.365 0.427l-0.078 0.042h-0.026c-0.078 0.052-0.135 0.172-0.068 0.266 0.083 0.135 0.109 0.266 0.094 0.401l-0.042 0.427c0 0.156-0.063 0.307-0.13 0.438-0.083 0.135-0.083 0.266-0.026 0.401l0.13 0.292c0.068 0.135 0.083 0.271 0.042 0.427-0.042 0.135-0.068 0.266-0.052 0.401 0 0.135 0.078 0.266 0.188 0.323zM26.266 22.922c0.135 0.13 0.333 0.182 0.495 0.078l0.266-0.172c0.135-0.094 0.24-0.229 0.292-0.401v-0.026l0.135-0.401 0.078-0.135 0.057-0.13 0.052-0.094c0.052-0.109 0.13-0.188 0.266-0.229l0.052-0.026c0.109-0.026 0.177-0.13 0.177-0.24 0-0.13 0.063-0.24 0.13-0.333l0.109-0.094 0.266-0.344v-0.026c0.078-0.109 0.13-0.229 0.161-0.365 0.026-0.13 0-0.266-0.057-0.396l-0.026-0.057c-0.052-0.13-0.078-0.224-0.094-0.344l-0.036-0.375-0.042-0.401c0-0.13 0.052-0.266 0.135-0.396 0.089-0.109 0.156-0.245 0.214-0.375v-0.052l0.026-0.026c0.026-0.135-0.042-0.271-0.161-0.271-0.135-0.063-0.266-0.172-0.307-0.333l-0.042-0.078c-0.063-0.24-0.104-0.479-0.104-0.719l0.026-0.667v-0.042c0-0.224-0.188-0.401-0.401-0.401h-0.026c-0.266 0-0.479-0.078-0.667-0.266l-0.104-0.135-0.271-0.302-0.344-0.401c-0.135-0.188-0.266-0.349-0.443-0.51-0.13-0.13-0.333-0.266-0.531-0.292l-0.266-0.042c-0.135-0.026-0.307-0.089-0.453-0.182-0.109-0.083-0.266-0.057-0.375 0.052l-0.172 0.188-0.083 0.052c-0.094 0.026-0.182-0.026-0.224-0.135-0.052-0.156-0.052-0.344 0.026-0.505v-0.078c0-0.094-0.078-0.161-0.161-0.135h-0.214c-0.24 0-0.479-0.026-0.703-0.13l-0.135-0.057c-0.135-0.068-0.292-0.104-0.438-0.104-0.135 0-0.271 0.026-0.401 0.104l-0.052 0.042c-0.161 0.104-0.349 0.161-0.536 0.172h-0.438c-0.203 0-0.401 0.068-0.536 0.177-0.172 0.104-0.359 0.172-0.557 0.208l-0.359 0.057c-0.161 0.036-0.333 0.104-0.484 0.224-0.13 0.135-0.318 0.214-0.49 0.266l-0.068 0.031c-0.214 0.063-0.401 0.198-0.531 0.396l-0.161 0.161c-0.094 0.135-0.094 0.292 0 0.427 0.078 0.135 0.24 0.172 0.401 0.135l0.198-0.083c0.104-0.036 0.229 0 0.318 0.052 0.083 0.068 0.203 0.109 0.323 0.094l0.333-0.036c0.188 0 0.375 0 0.557 0.052 0.203 0.068 0.375 0.135 0.536 0.266 0.161 0.135 0.333 0.188 0.531 0.214 0.203 0.026 0.401 0.068 0.589 0.135l0.13 0.026c0.135 0.042 0.245 0.13 0.323 0.266 0.068 0.109 0.13 0.266 0.13 0.401v0.042c0 0.156 0.135 0.266 0.271 0.266h0.078c0.214 0 0.443 0.026 0.667 0.094l0.094 0.036c0.135 0.057 0.266 0.135 0.359 0.271 0.109 0.13 0.172 0.266 0.214 0.396l0.042 0.188c0.036 0.203 0.052 0.401 0.052 0.615v0.068c0 0.13 0.094 0.266 0.24 0.318 0.135 0.026 0.292 0.083 0.443 0.161l0.063 0.026c0.177 0.104 0.349 0.24 0.479 0.401l0.068 0.094c0.177 0.198 0.266 0.453 0.266 0.703v0.094c0 0.203-0.036 0.401-0.104 0.589-0.052 0.161 0 0.349 0.172 0.401l0.094 0.068c0.203 0.078 0.375 0.224 0.505 0.396 0.135 0.203 0.188 0.427 0.188 0.667v0.401c-0.026 0.135-0.063 0.24-0.13 0.333s-0.068 0.229 0 0.323l0.078 0.13zM17.734 16.094h-0.026c-0.057 0-0.083 0.068-0.068 0.135l0.052 0.266c0.052 0.214 0.078 0.427 0.109 0.641 0.026 0.214 0.13 0.396 0.292 0.531h0.052c0.203 0.161 0.323 0.401 0.333 0.641v0.667c-0.026 0.13 0 0.266 0.083 0.375l0.063 0.063c0.135 0.161 0.188 0.349 0.203 0.536l0.036 0.734c0 0.172-0.104 0.318-0.266 0.344l-0.13 0.026c-0.094 0-0.135 0.109-0.135 0.203 0 0.104 0.042 0.224 0.078 0.333v0.026c0.042 0.13 0.057 0.266 0.042 0.401l-0.052 0.359c-0.052 0.266-0.135 0.505-0.266 0.745l-0.094 0.161c-0.068 0.13-0.161 0.214-0.271 0.266-0.13 0.052-0.224 0.161-0.266 0.292l-0.104 0.479c-0.068 0.271-0.188 0.536-0.349 0.802h-0.026c-0.161 0.214-0.359 0.401-0.599 0.531l-0.161 0.109-0.401 0.198c-0.13 0.057-0.214 0.177-0.24 0.323l-0.063 0.438c-0.042 0.266-0.135 0.495-0.323 0.667l-0.172 0.203-0.203 0.198-0.198 0.214c-0.161 0.188-0.401 0.266-0.667 0.229l-0.479-0.094-0.443-0.057h-0.12c-0.052 0.057-0.063 0.135-0.026 0.214 0.094 0.161 0.24 0.271 0.401 0.271l0.292 0.052c0.135 0 0.297 0.068 0.427 0.13 0.135 0.094 0.266 0.161 0.427 0.203h0.026c0.177 0.068 0.359 0.078 0.536 0.068l0.198-0.031c0.229-0.026 0.443 0 0.625 0.083l0.161 0.052c0.068 0.026 0.172 0 0.24-0.068 0.083-0.078 0.161-0.13 0.266-0.172l0.109-0.026c0.172-0.052 0.344-0.083 0.531-0.083h0.109c0.156 0 0.307 0.031 0.438 0.109l0.052 0.026c0.094 0.042 0.203 0 0.271-0.078 0.036-0.094 0.13-0.188 0.224-0.266l0.333-0.229 0.214-0.135 0.109-0.063c0.13-0.094 0.318-0.135 0.479-0.135l0.479-0.042c0.188-0.026 0.349-0.156 0.401-0.344 0.052-0.203 0.13-0.401 0.266-0.573 0.135-0.177 0.266-0.323 0.401-0.453 0.172-0.135 0.344-0.203 0.531-0.214h0.109c0.214-0.042 0.37-0.24 0.359-0.453v-0.896c0.026-0.13 0.078-0.307 0.156-0.438l0.271-0.401 0.104-0.135c0.083-0.068 0.135-0.156 0.229-0.266l0.13-0.172c0.083-0.135 0.083-0.307-0.026-0.427-0.13-0.135-0.198-0.323-0.224-0.505v-0.057c-0.026-0.214-0.026-0.438 0.036-0.667v-0.063c0.068-0.177 0.161-0.349 0.271-0.51 0.104-0.13 0.089-0.318-0.042-0.427l-0.229-0.198c-0.188-0.161-0.292-0.401-0.318-0.641l-0.026-0.266c0-0.083 0-0.172-0.026-0.266l-0.026-0.203c-0.031-0.224-0.161-0.401-0.349-0.531l-0.094-0.026c-0.135-0.083-0.266-0.203-0.375-0.359-0.104-0.135-0.156-0.323-0.198-0.51l-0.042-0.224c0-0.083-0.052-0.135-0.13-0.172l-0.641-0.203c-0.135-0.026-0.266-0.13-0.359-0.224h-0.026c-0.083-0.109-0.214-0.109-0.297-0.031l-0.13 0.135c-0.026 0.042-0.057 0.052-0.094 0.042-0.083 0-0.135-0.068-0.109-0.135 0.026-0.214-0.052-0.427-0.224-0.557l-0.177-0.135-0.396-0.266c-0.109-0.042-0.271 0-0.323 0.13l-0.052 0.083c0 0.026-0.042 0.036-0.052 0.052-0.057 0-0.135 0-0.135-0.068l-0.042-0.068c-0.036-0.078-0.13-0.13-0.214-0.156zM16.135 17.427l-0.068-0.068c-0.068-0.052-0.135-0.042-0.203 0.026-0.094 0.161-0.172 0.333-0.214 0.51v0.026c-0.036 0.172-0.198 0.292-0.359 0.266h-0.156c-0.188 0-0.333 0.161-0.333 0.344 0 0.24-0.083 0.484-0.229 0.667l-0.078 0.083c-0.135 0.172-0.333 0.292-0.536 0.359l-0.104 0.026c-0.135 0.042-0.24 0.135-0.266 0.292 0 0.135-0.083 0.271-0.188 0.375l-0.135 0.104c-0.161 0.177-0.401 0.271-0.641 0.297l-0.667 0.068c-0.214 0-0.396 0.13-0.531 0.333-0.135 0.198-0.333 0.333-0.531 0.359l-0.297 0.026c-0.214 0.026-0.438 0.026-0.667-0.026l-0.13-0.026-0.365-0.094c-0.13-0.042-0.24 0-0.318 0.094l-0.135 0.172c-0.172 0.198-0.422 0.292-0.667 0.266l-0.865-0.104c-0.135 0-0.24-0.068-0.359-0.135-0.135-0.078-0.229-0.172-0.323-0.266l-0.333-0.401c-0.036-0.026-0.104-0.042-0.172-0.026l-0.188 0.078-0.745 0.188c-0.135 0.042-0.307 0-0.438-0.078-0.135-0.109-0.297-0.135-0.458-0.135h-0.172c-0.161 0.042-0.266 0.214-0.214 0.375l0.052 0.266c0.042 0.135 0.031 0.292-0.036 0.427s-0.052 0.266 0.036 0.401l0.083 0.104c0.104 0.161 0.266 0.297 0.401 0.427 0.13 0.135 0.266 0.266 0.37 0.443l0.203 0.359c0.104 0.188 0.266 0.292 0.479 0.292 0.198 0 0.401 0.068 0.557 0.198l0.401 0.375c0.109 0.094 0.266 0.109 0.375 0.026l0.068-0.026c0.078 0 0.13 0.052 0.13 0.135v0.068c0 0.172 0.135 0.333 0.307 0.396l0.599 0.135c0.214 0.068 0.427 0.135 0.63 0.266h0.104c0.109 0 0.203-0.094 0.188-0.214v-0.464c0-0.135 0.052-0.271 0.161-0.323l0.068-0.026c0.063 0.026 0.13 0.078 0.104 0.135v0.224c0 0.172 0.052 0.333 0.172 0.453 0.135 0.135 0.307 0.161 0.453 0.109 0.161-0.068 0.323-0.083 0.495-0.068l0.495 0.026c0.24 0.026 0.464 0 0.667-0.094 0.24-0.078 0.438-0.188 0.625-0.333l0.078-0.052 0.401-0.359c0.135-0.135 0.307-0.203 0.469-0.203h0.531c0.266-0.026 0.51-0.266 0.536-0.531l0.052-0.266c0-0.177 0.078-0.333 0.198-0.469 0.135-0.135 0.266-0.214 0.401-0.266l0.161-0.068c0.224-0.094 0.401-0.292 0.479-0.531l0.078-0.323c0.068-0.266 0.203-0.531 0.401-0.703l0.026-0.031c0.161-0.13 0.188-0.396 0.083-0.583l-0.042-0.094c-0.094-0.135-0.109-0.333-0.042-0.505 0.068-0.188 0.135-0.349 0.24-0.51l0.135-0.188c0.052-0.104 0.052-0.266-0.026-0.359-0.083-0.104-0.135-0.24-0.135-0.37l-0.026-0.188v-0.453c0.026-0.135 0-0.307-0.042-0.443l-0.052-0.156zM14.229 16.411v-0.036c0-0.135-0.083-0.214-0.188-0.214h-0.349c-0.13 0.026-0.266 0.026-0.375 0h-0.599c-0.307 0-0.599-0.057-0.891-0.135l-0.323-0.078-0.266-0.083-0.599-0.198c-0.323-0.094-0.563-0.307-0.708-0.599l-0.068-0.135c-0.094-0.198-0.292-0.307-0.49-0.266-0.229 0-0.453 0-0.667-0.104l-0.161-0.068c-0.307-0.135-0.531-0.401-0.531-0.76l-0.057-0.359c-0.036-0.188-0.156-0.359-0.318-0.427-0.188-0.083-0.359-0.188-0.536-0.307l-0.063-0.042c-0.203-0.161-0.375-0.37-0.469-0.625l-0.026-0.078c-0.068-0.214-0.078-0.443-0.026-0.667l0.026-0.083c0.052-0.172 0.068-0.344 0.068-0.531 0-0.161-0.068-0.323-0.188-0.443l-0.188-0.172c-0.214-0.172-0.344-0.427-0.359-0.708-0.026-0.292-0.026-0.573 0.026-0.854v-0.078c0-0.161-0.135-0.266-0.266-0.266h-0.042c-0.172 0-0.318 0.104-0.401 0.266-0.063 0.188-0.172 0.333-0.292 0.479l-0.052 0.068-0.401 0.401c-0.135 0.13-0.214 0.333-0.24 0.531-0.026 0.203-0.078 0.401-0.161 0.589l-0.026 0.068c-0.068 0.156-0.172 0.307-0.307 0.401-0.13 0.104-0.224 0.266-0.224 0.422l-0.026 0.615c0 0.266-0.042 0.536-0.135 0.802l-0.026 0.104c-0.068 0.177 0 0.359 0.161 0.443l0.557 0.24 0.052 0.026c0.042 0 0.057 0.026 0.068 0.068 0.042 0.052 0 0.13-0.042 0.13l-0.13 0.068c-0.078 0.026-0.135 0.109-0.161 0.203l-0.026 0.13v0.026l-0.135 0.75c-0.026 0.104-0.026 0.224-0.026 0.344 0 0.109 0.068 0.203 0.161 0.24l0.292 0.135c0.135 0.078 0.297 0.172 0.401 0.266l0.135 0.109c0.036 0.052 0.104 0.104 0.156 0.13l0.057 0.052c0.094 0.083 0.156 0.188 0.188 0.307l0.13 0.599c0 0.161 0.135 0.297 0.266 0.333l0.214 0.068c0 0 0.042 0 0.068 0.026l0.266 0.083c0.214 0.068 0.401 0.188 0.563 0.344 0.161 0.135 0.318 0.307 0.453 0.495l0.052 0.052c0.109 0.135 0.266 0.203 0.427 0.161s0.333-0.052 0.505-0.052h0.203c0.13 0 0.307 0.036 0.453 0.13 0.13 0.083 0.307 0.135 0.464 0.203h0.042c0.161 0.068 0.333 0.036 0.469-0.052 0.13-0.109 0.307-0.161 0.479-0.161l0.625 0.036c0.135 0 0.266-0.026 0.333-0.13h0.026l0.229-0.214 0.068-0.068c0.104-0.13 0.266-0.188 0.422-0.198h0.604c0.156 0 0.307-0.135 0.37-0.266 0.068-0.135 0.203-0.245 0.359-0.271l0.271-0.052c0.104 0 0.198-0.094 0.24-0.214 0.036-0.13 0.104-0.24 0.198-0.318l0.214-0.214c0.135-0.135 0.203-0.266 0.229-0.427z" fill="#000000"/>
</g>

<g id="cssSvg">
    <path d="M22.1325 101.154L13.71 7.4375H106.29L97.8562 101.139L59.9437 111.562L22.1325 101.154Z" fill="#1572B6"/>
    <path d="M60 103.597L90.6375 95.1739L97.845 15.1018H60V103.597Z" fill="#33A9DC"/>
    <path d="M60 49.054H75.3375L76.395 37.2842H60V25.7896H89.0625L88.785 28.8724L85.9387 60.5487H60V49.054Z" fill="white"/>
    <path d="M60.0713 78.9045L60.0188 78.9193L47.1113 75.4609L46.2863 66.2942H34.65L36.2738 84.3413L60.015 90.8788L60.0713 90.864V78.9045Z" fill="#EBEBEB"/>
    <path d="M74.3513 60.0615L72.9563 75.4534L60.03 78.9119V90.8714L83.79 84.3412L83.9663 82.4001L85.98 60.0615H74.3513Z" fill="white"/>
    <path d="M60.0413 25.7896V37.2842H32.0438L31.8113 34.6997L31.2825 28.8724L31.005 25.7896H60.0413ZM60 49.054V60.5487H47.2538L47.0213 57.9642L46.4963 52.1369L46.2188 49.054H60Z" fill="#EBEBEB"/>
</g>

<g id="htmlSvg">
<path d="M22.1325 102.004L13.7063 7.5H106.294L97.8563 101.989L59.9438 112.5L22.1325 102.004Z" fill="#E44F26"/>
<path d="M60 104.468L90.6375 95.9738L97.845 15.2288H60V104.468Z" fill="#F1662A"/>
<path d="M60 50.2763H44.6625L43.605 38.4075H60V26.8163H30.9375L31.215 29.9288L34.0613 61.8675H60V50.2763ZM60 80.3775L59.9475 80.3925L47.04 76.9088L46.215 67.665H34.5787L36.2025 85.86L59.9475 92.4525L60 92.4375V80.3775Z" fill="#EBEBEB"/>
<path d="M59.9587 50.2763V61.8675H74.2312L72.8887 76.9013L59.9587 80.3888V92.4488L83.7225 85.86L83.895 83.9025L86.6175 53.3888L86.9025 50.2763H59.9587ZM59.9587 26.8163V38.4075H87.9562L88.1887 35.805L88.7175 29.9288L88.995 26.8163H59.9587Z" fill="white"/>
</g>

<g id="figmaSvg">
    <path d="M76.5625 0H23.4375C10.4933 0 0 10.4933 0 23.4375V76.5625C0 89.5067 10.4933 100 23.4375 100H76.5625C89.5067 100 100 89.5067 100 76.5625V23.4375C100 10.4933 89.5067 0 76.5625 0Z"/>
    <path d="M23.8281 10.9375H75.9219V89.0625H23.8281V10.9375Z" fill="white"/>
    <path d="M36.8543 89.0625C44.0418 89.0625 49.875 83.2293 49.875 76.0418V63.0207H36.8543C29.6668 63.0207 23.8333 68.8543 23.8333 76.0418C23.8333 83.2293 29.6668 89.0625 36.8543 89.0625Z" fill="#0ACF83"/>
    <path d="M23.8333 50C23.8333 42.8125 29.6668 36.9793 36.8543 36.9793H49.875V63.0207H36.8543C29.6668 63.0207 23.8333 57.1875 23.8333 50Z" fill="#A259FF"/>
    <path d="M23.8333 23.9582C23.8333 16.7707 29.6668 10.9375 36.8543 10.9375H49.875V36.9793H36.8543C29.6668 36.9793 23.8333 31.1457 23.8333 23.9582Z" fill="#F24E1E"/>
    <path d="M49.875 10.9375H62.8957C70.0832 10.9375 75.9168 16.7707 75.9168 23.9582C75.9168 31.1457 70.0832 36.9793 62.8957 36.9793H49.875V10.9375Z" fill="#FF7262"/>
    <path d="M75.9168 50C75.9168 57.1875 70.0832 63.0207 62.8957 63.0207C55.7082 63.0207 49.875 57.1875 49.875 50C49.875 42.8125 55.7082 36.9793 62.8957 36.9793C70.0832 36.9793 75.9168 42.8125 75.9168 50Z" fill="#1ABCFE"/>
</g>

<g id="jsSvg">
    <path d="M7.5 7.5H112.5V112.5H7.5V7.5Z" fill="#F5DE19"/>
    <path d="M78.0338 89.5312C78.9284 91.3485 80.3183 92.8759 82.0434 93.9375C83.7684 94.9991 85.7584 95.5515 87.7838 95.5313C91.8713 95.5313 94.485 93.4875 94.485 90.6562C94.485 87.2812 91.8 86.0738 87.3 84.105L84.8325 83.0475C77.7075 80.0138 72.9825 76.215 72.9825 68.1825C72.9825 60.7838 78.6075 55.1475 87.4313 55.1475C90.2877 54.9412 93.1416 55.5805 95.637 56.9856C98.1324 58.3907 100.159 60.4994 101.464 63.0488L93.75 67.98C93.2476 66.716 92.3728 65.6345 91.2416 64.879C90.1105 64.1236 88.7764 63.7298 87.4163 63.75C86.8229 63.6906 86.2236 63.7555 85.6567 63.9404C85.0897 64.1254 84.5675 64.4265 84.1234 64.8244C83.6792 65.2224 83.3228 65.7085 83.0769 66.2518C82.831 66.7951 82.7009 67.3837 82.695 67.98C82.695 70.9388 84.5288 72.1388 88.7625 73.98L91.23 75.0375C99.615 78.6338 104.355 82.2975 104.355 90.5363C104.355 99.42 97.3763 104.287 88.005 104.287C84.3537 104.52 80.713 103.691 77.5223 101.901C74.3317 100.11 71.7274 97.4342 70.0238 94.1963L78.0338 89.5312ZM43.1775 90.3863C44.7263 93.135 46.1363 95.46 49.5263 95.46C52.7663 95.46 54.8138 94.1925 54.8138 89.2612V55.71H64.68V89.3925C64.68 99.6075 58.68 104.257 49.9463 104.257C46.8591 104.426 43.7931 103.657 41.1513 102.051C38.5096 100.444 36.4157 98.0761 35.145 95.2575L43.1775 90.3863Z" fill="black"/>
</g>

<g id="reactSvg">
<path d="M92.9056 32.7028C91.7031 32.2887 90.4904 31.9051 89.2687 31.5524C89.4739 30.7107 89.6628 29.8792 89.8306 29.0624C92.5838 15.6484 90.7839 4.84184 84.6361 1.28381C78.7416 -2.12716 69.1016 1.42955 59.3659 9.93348C58.4064 10.7731 57.4682 11.6369 56.5522 12.524C55.9389 11.9341 55.3149 11.3556 54.6803 10.7889C44.4767 1.69623 34.2493 -2.13602 28.1081 1.43221C22.2189 4.8538 20.475 15.0127 22.9538 27.7254C23.2004 28.9845 23.4788 30.2371 23.7888 31.4819C22.3412 31.8948 20.9442 32.3342 19.6073 32.802C7.64443 36.9882 0.00476074 43.5483 0.00476074 50.353C0.00476074 57.3809 8.20629 64.4301 20.6662 68.7044C21.6763 69.0495 22.6949 69.3693 23.7209 69.6635C23.3877 71.0042 23.0918 72.3541 22.8337 73.7114C20.4706 86.2035 22.316 96.1224 28.1893 99.5223C34.2555 103.033 44.437 99.4248 54.3506 90.7268C55.1545 90.0197 55.9407 89.2925 56.7084 88.546C57.7004 89.5067 58.7189 90.4394 59.7627 91.343C69.366 99.6365 78.8502 102.985 84.7177 99.5763C90.7782 96.055 92.748 85.3995 90.1907 72.4357C89.9893 71.42 89.7634 70.4094 89.5132 69.4048C90.2282 69.1921 90.93 68.9733 91.6141 68.7456C104.567 64.4385 112.995 57.4748 112.995 50.353C112.995 43.5235 105.109 36.9191 92.9056 32.7028ZM90.0963 64.1474C89.4783 64.3525 88.8445 64.5506 88.1984 64.7433C86.7683 60.1996 84.8387 55.3684 82.4769 50.3764C84.7305 45.5036 86.586 40.7341 87.9759 36.2201C89.1319 36.5558 90.2534 36.9098 91.3347 37.2832C101.791 40.8962 108.169 46.2372 108.169 50.353C108.169 54.7367 101.281 60.4277 90.0963 64.1474ZM85.4557 73.3765C86.5865 79.1087 86.7476 84.2916 85.9986 88.3436C85.3259 91.9845 83.9727 94.4116 82.299 95.3839C78.7385 97.4526 71.1235 94.7637 62.911 87.6707C61.9401 86.8305 60.9927 85.9634 60.0699 85.0704C63.2539 81.5757 66.4358 77.5131 69.5412 73.0009C75.0036 72.5145 80.1641 71.7189 84.844 70.6332C85.0694 71.5426 85.2734 72.4574 85.4557 73.3765ZM38.5257 95.0264C35.0469 96.2592 32.2759 96.2947 30.6009 95.3254C27.0369 93.2625 25.5552 85.2981 27.5762 74.6151C27.8165 73.3527 28.0916 72.0973 28.4012 70.8502C33.0294 71.8779 38.1523 72.6168 43.6275 73.0625C46.7542 77.4777 50.0278 81.5358 53.3271 85.0894C52.6259 85.7704 51.9082 86.4339 51.1745 87.0793C46.7904 90.9253 42.3974 93.6541 38.5257 95.0264ZM22.2277 64.1204C16.7181 62.2302 12.168 59.7739 9.04931 57.0934C6.24661 54.6849 4.83202 52.2932 4.83202 50.353C4.83202 46.2235 10.9657 40.9564 21.1962 37.3767C22.4378 36.9426 23.7372 36.5328 25.0856 36.1483C26.4997 40.7642 28.3544 45.5905 30.5926 50.4708C28.3252 55.4233 26.4441 60.3267 25.0163 64.9971C24.0798 64.7278 23.15 64.4355 22.2277 64.1204ZM27.691 26.7947C25.5676 15.9031 26.9777 7.68712 30.5268 5.62504C34.3067 3.42873 42.6653 6.56017 51.4755 14.4116C52.05 14.9247 52.6152 15.4483 53.1708 15.982C49.8879 19.5201 46.6443 23.5481 43.5454 27.9372C38.2313 28.4315 33.1446 29.2254 28.4678 30.289C28.1797 29.1311 27.9206 27.9661 27.691 26.7952V26.7947ZM76.4301 38.874C75.3255 36.9589 74.1799 35.068 72.9941 33.2025C76.5992 33.6601 80.0533 34.2674 83.297 35.0098C82.3233 38.1426 81.1095 41.4176 79.6808 44.7754C78.6365 42.7867 77.5527 40.8192 76.4301 38.874ZM56.5544 19.4443C58.7806 21.8652 61.0104 24.5679 63.2036 27.5004C58.7546 27.2895 54.2982 27.2886 49.8491 27.4977C52.0445 24.5922 54.2932 21.8931 56.5544 19.4443ZM36.5511 38.9072C35.4425 40.8368 34.3789 42.792 33.3613 44.7714C31.956 41.4255 30.7532 38.1355 29.7712 34.9584C32.9949 34.2346 36.4328 33.6428 40.0149 33.1936C38.8159 35.0705 37.661 36.9754 36.5511 38.9067V38.9072ZM40.1178 67.857C36.4169 67.4424 32.9274 66.8811 29.7045 66.1768C30.702 62.943 31.9312 59.583 33.367 56.1653C34.3887 58.1462 35.4567 60.1026 36.57 62.0331C37.7149 64.0177 38.9005 65.9615 40.1178 67.857ZM56.6877 81.6027C54.3996 79.1256 52.1177 76.3848 49.8892 73.4372C52.0528 73.5223 54.2584 73.5657 56.5001 73.5657C58.8031 73.5657 61.0797 73.5139 63.3206 73.4138C61.1203 76.4145 58.8989 79.1592 56.6877 81.6027ZM79.7263 55.9908C81.2366 59.4461 82.5096 62.7884 83.5203 65.9668C80.2444 66.7172 76.7073 67.3214 72.9804 67.7702C74.1746 65.87 75.3311 63.9462 76.4491 61.9999C77.5858 60.0215 78.6784 58.018 79.7263 55.9908ZM72.268 59.5794C70.5565 62.5635 68.7487 65.491 66.8475 68.3571C63.4038 68.6019 59.9525 68.7235 56.5001 68.7217C52.9837 68.7217 49.5635 68.6118 46.27 68.3974C44.3193 65.5379 42.477 62.6053 40.7472 59.606H40.7476C39.0259 56.6225 37.4177 53.5745 35.9265 50.4686C37.4139 47.3619 39.0172 44.3125 40.733 41.3268L40.7326 41.3272C42.4478 38.3407 44.2753 35.4207 46.2113 32.5734C49.5715 32.3183 53.0172 32.1854 56.4996 32.1854H56.5001C59.9984 32.1854 63.4486 32.3196 66.8078 32.5765C68.7243 35.4195 70.5402 38.3295 72.2521 41.3011C73.9736 44.2802 75.5982 47.3148 77.1231 50.3999C75.6138 53.5166 73.9944 56.5784 72.268 59.5794ZM82.2253 5.48062C86.0087 7.67073 87.4803 16.5025 85.103 28.0842C84.9512 28.8231 84.7808 29.5758 84.5955 30.339C79.9072 29.2528 74.8169 28.4453 69.4874 27.9434C66.3828 23.506 63.1656 19.4718 59.9361 15.9793C60.7825 15.1605 61.6491 14.3628 62.5349 13.5872C70.8768 6.30147 78.6732 3.42474 82.2253 5.48062ZM56.5001 40.2264C62.0724 40.2264 66.5898 44.7603 66.5898 50.353C66.5898 55.9456 62.0724 60.4796 56.5001 60.4796C50.9278 60.4796 46.4104 55.9456 46.4104 50.353C46.4104 44.7603 50.9278 40.2264 56.5001 40.2264Z" fill="#00D8FF"/>
</g>

<g id="githubSvg">
    <path d="M44 0C19.69 0 0 19.69 0 44C0 63.47 12.595 79.915 30.085 85.745C32.285 86.13 33.11 84.81 33.11 83.655C33.11 82.61 33.055 79.145 33.055 75.46C22 77.495 19.14 72.765 18.26 70.29C17.765 69.025 15.62 65.12 13.75 64.075C12.21 63.25 10.01 61.215 13.695 61.16C17.16 61.105 19.635 64.35 20.46 65.67C24.42 72.325 30.745 70.455 33.275 69.3C33.66 66.44 34.815 64.515 36.08 63.415C26.29 62.315 16.06 58.52 16.06 41.69C16.06 36.905 17.765 32.945 20.57 29.865C20.13 28.765 18.59 24.255 21.01 18.205C21.01 18.205 24.695 17.05 33.11 22.715C36.63 21.725 40.37 21.23 44.11 21.23C47.85 21.23 51.59 21.725 55.11 22.715C63.525 16.995 67.21 18.205 67.21 18.205C69.63 24.255 68.09 28.765 67.65 29.865C70.455 32.945 72.16 36.85 72.16 41.69C72.16 58.575 61.875 62.315 52.085 63.415C53.68 64.79 55.055 67.43 55.055 71.555C55.055 77.44 55 82.17 55 83.655C55 84.81 55.825 86.185 58.025 85.745C66.7597 82.796 74.3497 77.1822 79.7268 69.6937C85.1039 62.2052 87.9974 53.219 88 44C88 19.69 68.31 0 44 0Z" fill="black"/>
</g>

<g id ="styledcomponentsSvg">
<path d="M68.7672 118.279C68.9472 117.872 69.4014 117.589 69.7314 117.246C74.7665 111.967 79.8444 106.735 84.811 101.391C86.3651 99.9558 87.5661 98.1804 88.3199 96.2036C89.0737 94.2269 89.36 92.1026 89.1562 89.9968C89.0003 89.0951 88.7957 88.2025 88.5434 87.3229C87.1893 88.6084 85.9294 89.7783 84.661 90.9567C82.6898 92.7908 80.7272 94.6334 78.7389 96.4461C77.5664 97.6415 76.0589 98.4531 74.4155 98.7737C72.772 99.0943 71.07 98.9087 69.5342 98.2416C67.9796 97.6705 66.6269 96.6553 65.6442 95.3221C64.6614 93.9889 64.0919 92.3965 64.0063 90.7425C63.9603 90.5297 63.8987 90.3206 63.8221 90.1168C62.3094 91.4024 60.861 92.5851 59.4254 93.8021L29.5875 119.085C29.3818 119.261 29.159 119.479 28.9662 119.65H68.7458L68.6858 119.612C68.4715 119.462 68.5829 118.673 68.7672 118.279Z" fill="#FFCEBF"/>
<path d="M27.1436 118.279C27.4974 117.818 27.9245 117.418 28.4077 117.096L69.7 82.0642C72.5168 79.6731 75.3207 77.2691 78.1118 74.8522C78.4567 74.6118 78.727 74.2791 78.8918 73.8924C79.5594 70.9831 79.654 67.9717 79.1703 65.0263C78.7418 65.3262 78.5104 65.4548 78.3132 65.6648C74.9322 68.6901 71.5683 71.7412 68.1702 74.7494C67.0445 75.8824 65.5885 76.6292 64.0116 76.8825C62.4346 77.1359 60.818 76.8826 59.3941 76.1592C57.9414 75.4734 56.7256 74.3709 55.9014 72.992C55.0773 71.6131 54.682 70.0201 54.766 68.4159V67.0275C54.1447 67.4817 53.6905 67.7859 53.2662 68.1287C36.7396 81.3615 20.2159 94.5842 3.69496 107.797C2.94933 108.393 2.05801 109.721 1.08098 108.431C0.103957 107.141 1.59092 106.61 2.34083 106.01C19.953 91.8774 37.5738 77.7576 55.2031 63.6507C58.0742 61.3496 58.2628 60.3854 56.3944 56.7301L55.2803 57.7757C52.2249 60.6168 49.1353 63.4193 46.1271 66.3075C44.8931 67.4978 43.3476 68.3148 41.6691 68.6641C39.9906 69.0135 38.2476 68.8809 36.6412 68.2818C35.0348 67.6827 33.6306 66.6415 32.5908 65.2784C31.5509 63.9153 30.9178 62.2858 30.7646 60.5782C30.1947 61.0067 29.7019 61.3196 29.2348 61.6838L3.09503 81.9443C2.64419 82.3864 2.13005 82.7591 1.5695 83.0498C1.14643 83.1777 0.692134 83.155 0.283936 82.9856V119.671H27.0922C26.9925 119.451 26.9453 119.21 26.9542 118.969C26.9631 118.727 27.028 118.491 27.1436 118.279Z" fill="#FFCEBF"/>
<path d="M99.5654 1.82096C98.8369 4.20782 98.1298 6.59897 97.4913 9.01154C96.9016 10.7164 96.9702 12.5802 97.6837 14.2371C98.3972 15.8941 99.7041 17.2246 101.348 17.9676C106.376 20.6107 112.043 21.798 117.709 21.3958V2.22806C117.646 1.80781 117.669 1.37914 117.777 0.968207C117.897 0.73576 118.049 0.520916 118.227 0.329712H99.5482C99.8353 0.663958 99.7368 1.25103 99.5654 1.82096Z" fill="#FF6196"/>
<path d="M62.0511 42.9976C61.9623 45.137 61.2139 47.1966 59.9085 48.894C55.242 54.9179 49.8829 60.3719 43.9418 65.1435C42.9837 66.0304 41.7694 66.591 40.473 66.745C39.1766 66.8989 37.8647 66.6383 36.7255 66.0005C35.5917 65.5161 34.6357 64.6925 33.9889 63.6428C33.342 62.5932 33.0361 61.369 33.1131 60.1384C33.2503 58.627 33.8779 57.202 34.9 56.0803C41.5435 49.7455 48.7415 44.019 56.4075 38.9695C56.9096 38.5758 57.5227 38.3499 58.1602 38.3237C58.7977 38.2976 59.4273 38.4725 59.9599 38.8238C60.66 39.2585 61.2259 39.8786 61.5951 40.6153C61.9642 41.352 62.122 42.1766 62.0511 42.9976Z" fill="#FF87AF"/>
<path d="M56.9127 68.97C56.8132 68.0228 56.9348 67.0654 57.2679 66.1731C57.6011 65.2809 58.1366 64.478 58.8325 63.8277C65.3374 57.8281 72.3164 52.3638 79.7014 47.4883C79.9243 47.3468 80.13 47.2054 80.3742 47.0597C81.0193 46.594 81.8009 46.356 82.596 46.3832C83.3912 46.4103 84.1547 46.7011 84.7665 47.2097C85.3585 47.7112 85.7774 48.3865 85.9635 49.1396C86.1497 49.8928 86.0937 50.6854 85.8036 51.4049C84.8693 54.5168 83.1449 57.3337 80.7984 59.5811C76.033 64.2758 71.1755 68.8762 66.2287 73.3795C65.4838 74.1456 64.5052 74.6422 63.447 74.7911C62.3889 74.9401 61.3112 74.7329 60.3837 74.2022C59.4091 73.6958 58.5792 72.9499 57.9721 72.0347C57.3649 71.1194 57.0004 70.0648 56.9127 68.97Z" fill="#FF87AF"/>
<path d="M87.8344 71.8015C86.6346 73.0871 85.4004 74.3126 84.2477 75.6282C83.9011 76.1367 83.6136 76.683 83.3907 77.2566C84.0249 77.4451 84.7662 77.9422 85.2804 77.7665C87.8987 76.888 90.4527 75.8339 93.3281 74.724C92.7024 76.1638 92.231 77.4922 91.5668 78.7092C88.8305 83.3078 85.4038 87.4587 81.4066 91.0164C79.8868 92.4819 78.3084 93.8832 76.6715 95.2201C75.8046 95.9395 74.7622 96.4157 73.6509 96.6001C72.5396 96.7844 71.3992 96.6702 70.3465 96.2692C69.2938 95.8681 68.3665 95.1947 67.6595 94.3176C66.9525 93.4406 66.4912 92.3916 66.3227 91.2778C66.254 90.6585 66.3087 90.0317 66.4838 89.4337C66.6589 88.8357 66.9507 88.2784 67.3426 87.7939C73.174 81.4614 79.8384 75.9503 87.1531 71.4115C87.242 71.3771 87.3363 71.3582 87.4316 71.3558L87.8344 71.8015Z" fill="#FF87AF"/>
<path d="M97.6724 54.7335L105.004 22.1659L110.147 23.37L107.494 31.4305C105.017 38.9296 102.51 46.4287 100.093 53.9364C99.6221 55.3248 99.0051 55.5819 97.6724 54.7335Z" fill="#FF6196"/>
<path d="M89.3859 73.8885C90.1615 70.9274 90.9328 68.1892 91.5842 65.421C92.219 62.7364 93.4264 60.2207 95.1238 58.0461C96.1651 56.6791 97.3349 57.2234 98.5305 57.519C99.6361 57.789 99.9146 58.5989 99.9618 59.6616C100.136 62.6005 99.2411 65.5031 97.4421 67.8335C95.3003 70.4887 92.5318 72.5695 89.3859 73.8885Z" fill="#FF6196"/>
<path d="M119.944 3.83936C120.008 2.88498 119.983 1.92674 119.871 0.976845C119.783 0.711516 119.607 0.483621 119.374 0.329779C119.184 0.175101 118.961 0.0652523 118.723 0.00838844C118.585 -0.0173228 118.393 0.124089 118.208 0.325493C118.03 0.516698 117.878 0.731542 117.758 0.96399C117.65 1.37492 117.627 1.80359 117.69 2.22384V21.3873C112.023 21.7895 106.357 20.6022 101.329 17.9591C99.685 17.2161 98.3781 15.8856 97.6646 14.2286C96.951 12.5717 96.8824 10.7079 97.4722 9.00304C98.1107 6.59046 98.8178 4.19932 99.5462 1.81246C99.7177 1.24253 99.8162 0.655454 99.5462 0.321208C99.3961 0.158494 99.1888 0.0602123 98.9677 0.0469556C98.6847 0.0500088 98.4105 0.146413 98.1878 0.321208C97.8674 0.512888 97.6121 0.796593 97.4551 1.1354C96.598 3.70652 95.8438 6.30336 95.1882 8.9259C94.9407 9.95936 94.874 11.0279 94.9911 12.0841C95.1569 13.9952 95.8676 15.8186 97.0389 17.3377C98.2102 18.8569 99.7928 20.0081 101.599 20.6545C102.409 20.993 102.884 21.3273 102.657 22.3943C102.344 23.7484 102.04 25.1026 101.732 26.461C99.632 35.6656 97.5436 44.8745 95.4667 54.0877C95.4082 54.4985 95.2275 54.8822 94.9482 55.189C93.5793 56.2771 92.4291 57.6148 91.5586 59.1314C90.4493 61.1327 89.6817 63.3052 89.2875 65.5592C89.2118 66.2782 88.952 66.9655 88.5331 67.5548C88.1143 68.144 87.5505 68.6153 86.8963 68.9231C85.1094 69.8273 83.4682 70.9971 81.4841 72.2141C81.6164 69.8282 81.5906 67.4361 81.407 65.0535C81.256 64.3206 81.288 63.5618 81.5003 62.8442C81.7126 62.1267 82.0985 61.4725 82.624 60.9397C85.2375 58.3506 87.1005 55.1015 88.0148 51.538C88.2878 50.712 88.3627 49.8333 88.2333 48.9729C88.104 48.1126 87.774 47.2948 87.27 46.5856C86.7661 45.8764 86.1023 45.2957 85.3325 44.8905C84.5626 44.4853 83.7081 44.267 82.8382 44.2531C81.4298 44.2374 80.047 44.6304 78.8573 45.3844C74.7683 48.1767 70.7504 51.0715 66.8073 54.0663C64.4633 55.8318 62.2564 57.7858 59.9852 59.637C59.8873 59.5319 59.8025 59.4154 59.7324 59.2899C59.689 58.9744 59.604 58.6661 59.4796 58.3729C57.5812 55.4418 58.8968 53.3121 60.958 51.1223C63.1053 48.8714 64.2919 45.8727 64.2661 42.7619C64.3327 41.1769 63.8363 39.6194 62.8649 38.3653C62.3474 37.7286 61.7096 37.2001 60.988 36.8097C59.9629 36.2487 58.7908 36.0145 57.6289 36.1386C56.467 36.2627 55.3708 36.7391 54.4873 37.5039L53.2917 38.361C50.5621 40.315 47.7981 42.2177 45.1713 44.3089C41.3364 47.3705 37.5841 50.5341 33.9183 53.7963C32.2042 55.309 30.953 57.3744 29.1746 58.78C19.9014 66.1034 10.5297 73.294 1.1922 80.5317C0.871132 80.7232 0.575909 80.9551 0.313735 81.2216C0.286745 81.2606 0.263774 81.3023 0.245172 81.3459C0.0480521 81.8044 -0.119071 82.5629 0.112331 82.8414C0.169054 82.9019 0.23761 82.95 0.313735 82.9828C0.721934 83.1523 1.17623 83.175 1.5993 83.0471C2.15985 82.7563 2.67399 82.3837 3.12483 81.9415L29.2646 61.6811C29.7317 61.3168 30.2245 60.9869 30.7944 60.5755C30.9476 62.2831 31.5807 63.9125 32.6206 65.2757C33.6604 66.6388 35.0646 67.68 36.671 68.2791C38.2774 68.8782 40.0204 69.0107 41.6989 68.6614C43.3774 68.312 44.9229 67.4951 46.1569 66.3048C49.1565 63.4166 52.2547 60.6141 55.3101 57.773L56.4242 56.7274C58.2926 60.3827 58.104 61.3468 55.2329 63.648C37.5893 77.7663 19.9585 91.8875 2.34064 106.012C1.59073 106.611 0.108046 107.156 1.08079 108.433C2.05353 109.71 2.94914 108.394 3.69476 107.798C20.2242 94.5972 36.7423 81.3787 53.2489 68.1432C53.6774 67.8003 54.1273 67.4961 54.7487 67.0419V68.4303C54.6647 70.0345 55.0599 71.6275 55.8841 73.0064C56.7082 74.3853 57.924 75.4879 59.3767 76.1736C60.8007 76.897 62.4173 77.1503 63.9942 76.897C65.5711 76.6436 67.0271 75.8968 68.1528 74.7638C71.551 71.7642 74.9149 68.7045 78.2959 65.6792C78.5102 65.4863 78.7587 65.3406 79.153 65.0407C79.6367 67.9861 79.542 70.9975 78.8744 73.9068C78.7096 74.2936 78.4394 74.6262 78.0945 74.8667C75.3005 77.2807 72.4966 79.6847 69.6826 82.0787L28.4075 117.115C27.9243 117.437 27.4972 117.836 27.1434 118.297C27.0305 118.507 26.9672 118.741 26.9582 118.979C26.9493 119.217 26.9951 119.455 27.092 119.673C27.2856 119.818 27.5094 119.917 27.7468 119.964C27.9842 120.011 28.2291 120.004 28.4633 119.943C28.648 119.889 28.8181 119.794 28.9603 119.664C29.1746 119.493 29.3889 119.274 29.5817 119.099L59.4196 93.8158C60.8551 92.5988 62.3035 91.399 63.8162 90.1306C63.8928 90.3343 63.9544 90.5434 64.0005 90.7562C64.0861 92.4102 64.6556 94.0027 65.6383 95.3358C66.6211 96.669 67.9737 97.6842 69.5284 98.2553C71.0641 98.9225 72.7662 99.108 74.4096 98.7874C76.053 98.4669 77.5606 97.6552 78.733 96.4598C80.7213 94.6472 82.684 92.8045 84.6552 90.9705C85.9407 89.792 87.1834 88.6093 88.5376 87.3366C88.7898 88.2162 88.9944 89.1089 89.1503 90.0106C89.3473 92.1094 89.0578 94.2253 88.3042 96.1941C87.5506 98.1628 86.3532 99.9313 84.8051 101.362C79.8386 106.71 74.7606 111.942 69.7255 117.217C69.3955 117.56 68.9413 117.843 68.7613 118.25C68.5813 118.657 68.4657 119.454 68.6799 119.626L68.7399 119.664C69.1892 119.883 69.6945 119.959 70.1883 119.883C70.3267 119.854 70.45 119.777 70.5354 119.664C70.6554 119.54 70.7711 119.386 70.8868 119.27C74.9663 115.053 79.0672 110.858 83.1168 106.611C84.7513 104.955 86.288 103.205 87.7191 101.371C89.5851 99.3049 90.8224 96.7492 91.2855 94.0042C91.7486 91.2591 91.4181 88.439 90.3331 85.8754C90.2164 85.3037 90.3304 84.7092 90.6502 84.2213C90.9287 83.7413 91.2372 83.2742 91.5543 82.8114C92.569 81.494 93.4141 80.0544 94.0698 78.5262C95.3368 74.7758 97.2817 71.2898 99.8076 68.2417C100.969 66.7695 101.768 65.0448 102.14 63.207C102.512 61.3692 102.447 59.4696 101.95 57.6616C101.775 56.9741 101.775 56.2535 101.95 55.5661C104.119 48.8512 106.351 42.1577 108.562 35.4599L111.519 26.4867L112.432 23.7142C114.377 23.7142 116.211 23.6756 118.037 23.7142C119.554 23.757 120.017 23.0457 120 21.5715C119.91 15.658 119.944 9.74866 119.944 3.83936ZM43.9371 65.1435C42.9791 66.0304 41.7647 66.591 40.4683 66.745C39.1719 66.8989 37.86 66.6383 36.7208 66.0006C35.587 65.5162 34.631 64.6925 33.9842 63.6429C33.3373 62.5932 33.0314 61.369 33.1084 60.1384C33.2457 58.6271 33.8732 57.202 34.8953 56.0803C41.5388 49.7455 48.7368 44.019 56.4028 38.9695C56.8212 38.6737 57.2972 38.4693 57.7998 38.3696C58.1369 38.3074 58.4825 38.3074 58.8196 38.3696C59.2234 38.4482 59.6086 38.6023 59.9552 38.8238C60.656 39.2588 61.2224 39.8796 61.5916 40.6171C61.9607 41.3547 62.1182 42.1802 62.0464 43.0019C61.9576 45.1413 61.2092 47.2009 59.9038 48.8983C55.237 54.9207 49.878 60.3733 43.9371 65.1435ZM66.2202 73.4097C65.4752 74.1758 64.4966 74.6724 63.4385 74.8213C62.3803 74.9703 61.3027 74.7631 60.3752 74.2324C59.3988 73.7249 58.5678 72.977 57.9605 72.0593C57.3533 71.1416 56.9897 70.0844 56.9042 68.9874C56.8047 68.0401 56.9263 67.0828 57.2594 66.1905C57.5925 65.2982 58.1281 64.4954 58.8239 63.8451C65.3288 57.8454 72.3078 52.3811 79.6929 47.5056C79.9157 47.3642 80.1214 47.2228 80.3657 47.0771C81.0107 46.6114 81.7923 46.3734 82.5875 46.4005C83.3826 46.4277 84.1462 46.7185 84.758 47.2271C85.35 47.7285 85.7688 48.4038 85.955 49.157C86.1412 49.9101 86.0852 50.7028 85.795 51.4223C84.8607 54.5342 83.1364 57.351 80.7899 59.5985C76.0633 64.3208 71.1482 68.8674 66.2288 73.3925L66.2202 73.4097ZM91.5501 78.7276C88.8175 83.319 85.3967 87.4638 81.407 91.0176C79.8872 92.4831 78.3088 93.8844 76.6718 95.2214C75.8049 95.9408 74.7625 96.417 73.6512 96.6013C72.5399 96.7856 71.3996 96.6714 70.3469 96.2704C69.2942 95.8694 68.3669 95.1959 67.6599 94.3189C66.9529 93.4419 66.4915 92.3928 66.323 91.279C66.2543 90.6597 66.3091 90.0329 66.4842 89.435C66.6592 88.837 66.9511 88.2796 67.3429 87.7951C73.1743 81.4627 79.8387 75.9515 87.1534 71.4128C87.2424 71.3783 87.3366 71.3594 87.432 71.3571L87.8605 71.7856C86.6606 73.0712 85.4265 74.2967 84.2738 75.6123C83.9272 76.1208 83.6396 76.6671 83.4167 77.2407C84.0509 77.4292 84.7923 77.9263 85.3065 77.7506C87.3763 77.0564 89.4117 76.2508 91.5929 75.3937L93.3541 74.7081C92.6942 76.1651 92.2228 77.4935 91.5586 78.7105L91.5501 78.7276ZM97.4336 67.8646C95.8352 69.8996 93.8317 71.5806 91.5501 72.8012C90.8444 73.1954 90.1202 73.564 89.3775 73.9068C90.1402 70.9885 90.903 68.2846 91.5501 65.5506L91.5758 65.4392C92.2106 62.7546 93.418 60.2389 95.1153 58.0644C96.1566 56.6974 97.3265 57.2416 98.5221 57.5373C99.6277 57.8073 99.9062 58.6172 99.9533 59.6799C100.129 62.6162 99.2372 65.5171 97.4422 67.8475L97.4336 67.8646ZM107.461 31.4404C104.984 38.9395 102.477 46.4386 100.06 53.9463C99.6062 55.3561 98.9892 55.6132 97.6565 54.7648L104.011 26.5124L104.988 22.1758L110.131 23.3799L109.098 26.5124L107.461 31.4404Z" fill="black"/>
</g>

<g id="typescriptSvg">
<path d="M2,63.91v62.5H127V1.41H2Zm100.73-5a15.56,15.56,0,0,1,7.82,4.5,20.58,20.58,0,0,1,3,4c0,.16-5.4,3.81-8.69,5.85-.12.08-.6-.44-1.13-1.23a7.09,7.09,0,0,0-5.87-3.53c-3.79-.26-6.23,1.73-6.21,5a4.58,4.58,0,0,0,.54,2.34c.83,1.73,2.38,2.76,7.24,4.86,8.95,3.85,12.78,6.39,15.16,10,2.66,4,3.25,10.46,1.45,15.24-2,5.2-6.9,8.73-13.83,9.9a38.32,38.32,0,0,1-9.52-.1A23,23,0,0,1,80,109.19c-1.15-1.27-3.39-4.58-3.25-4.82a9.34,9.34,0,0,1,1.15-.73L82.5,101l3.59-2.08.75,1.11a16.78,16.78,0,0,0,4.74,4.54c4,2.1,9.46,1.81,12.16-.62a5.43,5.43,0,0,0,.69-6.92c-1-1.39-3-2.56-8.59-5-6.45-2.78-9.23-4.5-11.77-7.24a16.48,16.48,0,0,1-3.43-6.25,25,25,0,0,1-.22-8c1.33-6.23,6-10.58,12.82-11.87A31.66,31.66,0,0,1,102.73,58.93ZM73.39,64.15l0,5.12H57.16V115.5H45.65V69.26H29.38v-5a49.19,49.19,0,0,1,.14-5.16c.06-.08,10-.12,22-.1L73.33,59Z" fill="#4597e8"/>
</g>

</svg>

