<svg width="384" height="244" viewBox="0 0 384 244" fill="none" xmlns="http://www.w3.org/2000/svg">
<g filter="url(#filter0_d_27_2146)">
<path d="M303.526 -75.9088C242.142 -27.5407 242.109 95.3956 165.64 111.519C65.8006 132.57 43.6866 227.819 -47.229 213.066C-140.031 198.006 -286.228 168.68 -218.154 43.5321C-152.899 -76.4351 -183.956 -202.784 -47.5939 -195.313C54.7372 -189.707 208.02 -481.195 258.608 -392.066C327.903 -269.978 413.791 -162.793 303.526 -75.9088Z" fill="white"/>
<path d="M303.217 -76.3015C287.792 -64.1475 276.241 -47.3254 266.397 -28.7191C259.195 -15.109 252.892 -0.512839 246.656 13.9297C244.369 19.2237 242.092 24.4972 239.783 29.6938C222.531 68.5172 203.492 103.027 165.537 111.03C120.056 120.62 90.6491 145.572 63.6449 168.487C60.9228 170.796 58.2252 173.085 55.538 175.336C26.1829 199.92 -1.92212 219.911 -47.1489 212.572C-93.5685 205.039 -153.214 193.953 -192.754 169.158C-212.512 156.769 -227.195 140.99 -232.734 120.57C-238.272 100.151 -234.696 74.9883 -217.715 43.771C-201.376 13.7332 -191.07 -16.6968 -182.671 -45.3084C-180.185 -53.7778 -177.866 -62.0834 -175.609 -70.1711C-170.235 -89.4256 -165.205 -107.445 -159.072 -123.501C-150.367 -146.289 -139.47 -165.026 -122.3 -177.613C-105.136 -190.193 -81.6358 -196.678 -47.6212 -194.814C-34.7094 -194.107 -21.0311 -198.086 -6.90235 -205.369C7.22825 -212.653 21.8405 -223.258 36.6312 -235.844C62.9431 -258.233 89.873 -286.941 115.709 -314.482C118.915 -317.9 122.105 -321.3 125.275 -324.668C154.005 -355.197 181.061 -383.05 204.081 -397.715C215.593 -405.049 226.019 -409.034 235.093 -408.473C244.117 -407.915 251.911 -402.852 258.173 -391.82C266.585 -377 275.24 -362.4 283.758 -348.033L284.526 -346.738C293.291 -331.952 301.897 -317.416 309.93 -303.134C326 -274.567 339.765 -247.045 347.924 -220.639C356.083 -194.235 358.627 -168.976 352.287 -144.922C345.949 -120.873 330.716 -97.97 303.217 -76.3015Z" stroke="#FCFCFC"/>
</g>
<defs>
<filter id="filter0_d_27_2146" x="-254.649" y="-426.025" width="637.994" height="669.636" filterUnits="userSpaceOnUse" color-interpolation-filters="sRGB">
<feFlood flood-opacity="0" result="BackgroundImageFix"/>
<feColorMatrix in="SourceAlpha" type="matrix" values="0 0 0 0 0 0 0 0 0 0 0 0 0 0 0 0 0 0 127 0" result="hardAlpha"/>
<feMorphology radius="2" operator="erode" in="SourceAlpha" result="effect1_dropShadow_27_2146"/>
<feOffset dx="4" dy="6"/>
<feGaussianBlur stdDeviation="12.5"/>
<feColorMatrix type="matrix" values="0 0 0 0 0.466667 0 0 0 0 0.545098 0 0 0 0 0.647059 0 0 0 0.06 0"/>
<feBlend mode="normal" in2="BackgroundImageFix" result="effect1_dropShadow_27_2146"/>
<feBlend mode="normal" in="SourceGraphic" in2="effect1_dropShadow_27_2146" result="shape"/>
</filter>
</defs>
</svg>
