<svg width="340" height="206" viewBox="0 0 340 206" fill="none" xmlns="http://www.w3.org/2000/svg">
<g filter="url(#filter0_d_27_2147)">
<path d="M259.526 -113.909C198.142 -65.5407 198.109 57.3956 121.64 73.5191C21.8006 94.5704 -0.313437 189.819 -91.229 175.066C-184.031 160.006 -330.228 130.68 -262.154 5.53206C-196.899 -114.435 -227.956 -240.784 -91.5939 -233.313C10.7372 -227.707 164.02 -519.195 214.608 -430.066C283.903 -307.978 369.791 -200.793 259.526 -113.909Z" fill="white"/>
<path d="M259.217 -114.302C243.792 -102.147 232.241 -85.3254 222.397 -66.7191C215.195 -53.109 208.892 -38.5128 202.656 -24.0703C200.369 -18.7763 198.092 -13.5028 195.783 -8.30618C178.531 30.5172 159.492 65.027 121.537 73.0299C76.0556 82.6196 46.6491 107.572 19.6449 130.487C16.9228 132.796 14.2252 135.085 11.538 137.336C-17.8171 161.92 -45.9221 181.911 -91.1489 174.572C-137.569 167.039 -197.214 155.953 -236.754 131.158C-256.512 118.769 -271.195 102.99 -276.734 82.5699C-282.272 62.1513 -278.696 36.9883 -261.715 5.77098C-245.376 -24.2668 -235.07 -54.6968 -226.671 -83.3084C-224.185 -91.7778 -221.866 -100.083 -219.609 -108.171C-214.235 -127.426 -209.205 -145.445 -203.072 -161.501C-194.367 -184.289 -183.47 -203.026 -166.3 -215.613C-149.136 -228.193 -125.636 -234.678 -91.6212 -232.814C-78.7094 -232.107 -65.0311 -236.086 -50.9023 -243.369C-36.7718 -250.653 -22.1595 -261.258 -7.36883 -273.844C18.9431 -296.233 45.873 -324.941 71.7089 -352.482C74.9155 -355.9 78.1052 -359.3 81.2748 -362.668C110.005 -393.197 137.061 -421.05 160.081 -435.715C171.593 -443.049 182.019 -447.034 191.093 -446.473C200.117 -445.915 207.911 -440.852 214.173 -429.82C222.585 -415 231.24 -400.4 239.758 -386.033L240.526 -384.738C249.291 -369.952 257.897 -355.416 265.93 -341.134C282 -312.567 295.765 -285.045 303.924 -258.639C312.083 -232.235 314.627 -206.976 308.287 -182.922C301.949 -158.873 286.716 -135.97 259.217 -114.302Z" stroke="#FCFCFC"/>
</g>
<defs>
<filter id="filter0_d_27_2147" x="-298.649" y="-464.025" width="637.994" height="669.635" filterUnits="userSpaceOnUse" color-interpolation-filters="sRGB">
<feFlood flood-opacity="0" result="BackgroundImageFix"/>
<feColorMatrix in="SourceAlpha" type="matrix" values="0 0 0 0 0 0 0 0 0 0 0 0 0 0 0 0 0 0 127 0" result="hardAlpha"/>
<feMorphology radius="2" operator="erode" in="SourceAlpha" result="effect1_dropShadow_27_2147"/>
<feOffset dx="4" dy="6"/>
<feGaussianBlur stdDeviation="12.5"/>
<feColorMatrix type="matrix" values="0 0 0 0 0.466667 0 0 0 0 0.545098 0 0 0 0 0.647059 0 0 0 0.06 0"/>
<feBlend mode="normal" in2="BackgroundImageFix" result="effect1_dropShadow_27_2147"/>
<feBlend mode="normal" in="SourceGraphic" in2="effect1_dropShadow_27_2147" result="shape"/>
</filter>
</defs>
</svg>
