<svg width="428" height="299" viewBox="0 0 428 299" fill="none" xmlns="http://www.w3.org/2000/svg">
<g filter="url(#filter0_d_27_2145)">
<path d="M347.527 -39.9086C286.143 8.45946 286.11 131.396 209.641 147.519C109.802 168.571 54.4169 282.754 -36.4986 268C-129.301 252.941 -242.227 204.68 -174.153 79.5322C-108.898 -40.435 -139.955 -166.784 -3.59293 -159.313C98.7381 -153.707 252.021 -445.195 302.609 -356.066C371.904 -233.978 457.792 -126.793 347.527 -39.9086Z" fill="white"/>
<path d="M347.218 -40.3014C331.793 -28.1473 320.242 -11.3252 310.397 7.28107C303.196 20.8912 296.893 35.4873 290.657 49.9298C288.37 55.2239 286.093 60.4973 283.784 65.694C266.532 104.517 247.493 139.027 209.538 147.03C164.535 156.519 128.542 184.879 94.3752 211.801C90.5364 214.826 86.7206 217.832 82.9176 220.792C45.213 250.136 8.80024 274.845 -36.4185 267.507C-82.7961 259.981 -134.102 244.17 -165.311 214.686C-180.902 199.957 -191.468 181.826 -193.917 159.605C-196.366 137.376 -190.7 110.998 -173.714 79.7711C-157.375 49.7333 -147.069 19.3033 -138.67 -9.30827C-136.184 -17.7777 -133.865 -26.0832 -131.608 -34.1709C-126.234 -53.4255 -121.204 -71.4452 -115.071 -87.5013C-106.366 -110.289 -95.4695 -129.026 -78.2986 -141.612C-61.1356 -154.193 -37.6348 -160.677 -3.62028 -158.814C9.29152 -158.106 22.9698 -162.086 37.0986 -169.369C51.2292 -176.653 65.8414 -187.258 80.6321 -199.844C106.944 -222.234 133.874 -250.941 159.711 -278.482C162.917 -281.9 166.106 -285.3 169.276 -288.668C198.006 -319.197 225.062 -347.049 248.082 -361.715C259.594 -369.049 270.02 -373.034 279.094 -372.473C288.118 -371.915 295.912 -366.852 302.174 -355.82C310.586 -341 319.241 -326.399 327.758 -312.033L328.527 -310.738C337.292 -295.952 345.898 -281.416 353.931 -267.134C370.001 -238.567 383.766 -211.045 391.925 -184.639C400.084 -158.235 402.628 -132.976 396.288 -108.921C389.95 -84.8727 374.717 -61.9698 347.218 -40.3014Z" stroke="#FCFCFC"/>
</g>
<defs>
<filter id="filter0_d_27_2145" x="-213.961" y="-390.025" width="641.307" height="688.336" filterUnits="userSpaceOnUse" color-interpolation-filters="sRGB">
<feFlood flood-opacity="0" result="BackgroundImageFix"/>
<feColorMatrix in="SourceAlpha" type="matrix" values="0 0 0 0 0 0 0 0 0 0 0 0 0 0 0 0 0 0 127 0" result="hardAlpha"/>
<feMorphology radius="2" operator="erode" in="SourceAlpha" result="effect1_dropShadow_27_2145"/>
<feOffset dx="4" dy="6"/>
<feGaussianBlur stdDeviation="12.5"/>
<feColorMatrix type="matrix" values="0 0 0 0 0.466667 0 0 0 0 0.545098 0 0 0 0 0.647059 0 0 0 0.06 0"/>
<feBlend mode="normal" in2="BackgroundImageFix" result="effect1_dropShadow_27_2145"/>
<feBlend mode="normal" in="SourceGraphic" in2="effect1_dropShadow_27_2145" result="shape"/>
</filter>
</defs>
</svg>
